<?xml version="1.0" encoding="utf-8"?>
<!-- Generator: Adobe Illustrator 24.0.0, SVG Export Plug-In . SVG Version: 6.00 Build 0)  -->
<svg version="1.1" xmlns="http://www.w3.org/2000/svg" xmlns:xlink="http://www.w3.org/1999/xlink" x="0px" y="0px"
	 viewBox="0 110 768 445" style="enable-background:new 0 0 768 614.5;" xml:space="preserve">
<style type="text/css">
	.st0{fill:#FFFFFF;}
	.st1{fill:#FDF082;}
	.st2{fill:#0BBAE5;}
	.st3{fill:#26B78C;}
	.st4{fill:#A44DCF;}
	.st5{fill:#8DD596;}
	.st6{fill:#D05AD4;}
	.st7{fill:#994EF3;}
	.st8{fill:#FF6CFF;}
	.st9{fill:#401D67;}
	.st10{fill:#4C3583;}
	.st11{fill:#673C7A;}
	.st12{fill:#CD80A9;}
	.st13{fill:#CB81AB;}
	.st14{fill:#FF7441;}
	.st15{fill:#F9911D;}
	.st16{fill:#F7921D;}
	.st17{fill:#FCAF3C;}
	.st18{fill:#1C0B35;}
	.st19{fill:#FFBF24;}
	.st20{fill:#F9B138;}
	.st21{fill:#F3C4D2;}
	.st22{fill:#FEAF3E;}
	.st23{fill:#FBB03B;}
	.st24{fill:#454545;}
	.st25{fill:#140D35;}
	.st26{fill:#765A8B;}
	.st27{fill:#625EAF;}
	.st28{fill:#C2C2C2;}
	.st29{fill:#190B2E;}
	.st30{fill:#FFF9FF;}
	.st31{fill:#FF8F28;}
	.st32{fill:#CB8AA7;}
	.st33{fill:#C1E8FA;}
	.st34{fill:#4E2A9B;}
	.st35{fill:#FF6F5A;}
	.st36{fill:#1D0735;}
	.st37{fill:#3F1E67;}
	.st38{fill:#421C67;}
	.st39{fill:#019549;}
	.st40{fill:#FEED22;}
	.st41{fill:#3F1D68;}
	.st42{fill:#FFB03A;}
	.st43{fill:#180022;}
	.st44{fill:#F67884;}
	.st45{fill:#4C4F96;}
	.st46{fill:#FFAE3A;}
	.st47{fill:#9F5EA9;}
	.st48{fill:#22B279;}
	.st49{fill:#421C6A;}
	.st50{fill:#0E1423;}
	.st51{fill:#20AEEE;}
	.st52{fill:#25B575;}
	.st53{fill:#26B174;}
	.st54{fill:#FF8F22;}
	.st55{fill:#A257A5;}
	.st56{fill:#B4B4B4;}
	.st57{fill:#FFAA3B;}
	.st58{fill:#E76E1E;}
	.st59{fill:#FCAC42;}
	.st60{fill:#F8901B;}
	.st61{fill:#F66A1E;}
</style>
<g id="LINES">
	<g id="Shoulders">
		<g>
			<polygon class="st9" points="526,508 559,550 533.67,550.24 504.51,502.68 			"/>
			<polygon class="st10" points="504.51,502.68 533.67,550.24 471.5,534.5 			"/>
			<polygon class="st11" points="533.67,550.24 458.48,550.95 471.5,534.5 			"/>
			<polygon class="st11" points="504.51,502.68 471.5,534.5 475.79,495.94 475.88,495.59 			"/>
			<polygon class="st9" points="475.88,495.59 475.79,495.94 447.12,504.08 451.29,489.5 			"/>
			<polygon class="st10" points="475.79,495.94 471.5,534.5 458.48,550.95 457.08,550.97 439.5,529.5 439.43,529.41 440,529 
				447.12,504.08 			"/>
			<polygon class="st3" points="458.48,550.95 457.79,551.83 457.08,550.97 			"/>
			<polygon class="st11" points="439.5,529.5 457.08,550.97 408.48,551.43 439.43,529.41 			"/>
			<polygon class="st10" points="451.29,489.5 447.12,504.08 424.5,510.5 423.13,508.47 			"/>
			<polygon class="st9" points="311.46,523.81 242.06,488.02 277.5,476.5 421,482 451.29,489.5 423.13,508.47 384.5,534.5 
				408.48,551.43 365.79,551.83 			"/>
			<polygon class="st11" points="447.12,504.08 440,529 439.43,529.41 424.5,510.5 			"/>
			<polygon class="st10" points="439.43,529.41 408.48,551.43 384.5,534.5 423.13,508.47 424.5,510.5 			"/>
			<polygon class="st9" points="309.56,534.18 365.79,551.83 248.23,552.95 302.38,529.51 309,534 			"/>
			<polygon class="st10" points="365.79,551.83 309.56,534.18 311.46,523.81 			"/>
			<polygon class="st11" points="302.38,529.51 274.29,510.43 241.54,488.19 242.06,488.02 311.46,523.81 309.56,534.18 309,534 			
				"/>
			<polygon class="st9" points="274.29,510.43 302.38,529.51 248.23,552.95 248.22,552.95 168.01,553.71 178.11,527.03 
				238.85,528.24 			"/>
			<polygon class="st9" points="241.54,488.19 274.29,510.43 179.8,522.56 185.99,506.24 			"/>
			<polygon class="st11" points="274.29,510.43 238.85,528.24 178.11,527.03 179.8,522.56 			"/>
			<polygon class="st11" points="238.85,486.36 242.06,488.02 241.54,488.19 			"/>
			<polygon class="st11" points="185.99,506.24 179.8,522.56 151.83,526.16 157.5,515.5 			"/>
			<polygon class="st11" points="179.8,522.56 178.11,527.03 151.64,526.5 151.83,526.16 			"/>
			<polygon class="st9" points="178.11,527.03 168.01,553.71 137,554 151.64,526.5 			"/>
			<polygon class="st11" points="151.83,526.16 151.64,526.5 149.47,526.46 			"/>
		</g>
		<g>
		</g>
	</g>
	<g id="Face">
		<g>
			<polygon class="st9" points="462.88,177.63 462.79,177.44 478.79,176.44 495.79,223.44 484.79,225.44 			"/>
			<polygon class="st9" points="495.79,223.44 489.5,279.53 486.64,246.7 484.79,225.44 			"/>
			<polygon class="st11" points="486.64,246.7 489.5,279.53 489.5,279.54 486.74,304.15 486.64,304.14 475.79,265.44 471.57,245.62 
				462.83,204.64 			"/>
			<polygon class="st9" points="486.74,304.15 483.79,330.44 480.79,329.44 479.39,311.52 477.89,292.28 477.1,282.26 
				475.79,265.44 486.64,304.14 			"/>
			<polygon class="st11" points="484.79,225.44 486.64,246.7 462.83,204.64 462.79,204.44 462.3,203.7 437.79,166.44 437.04,166.41 
				426.84,144.42 427.79,144.44 462.88,177.63 			"/>
			<polygon class="st12" points="480.79,329.44 482.79,351.44 473.79,408.44 468.79,421.44 445.6,450.42 432.79,430.44 
				407.79,453.44 381.79,446.44 358.79,462.44 312.1,421.48 318.79,411.44 331.04,399.25 329.79,417.44 357.79,440.44 
				365.56,435.58 375.79,437.44 381.79,435.44 398.8,436.42 398.79,436.44 399.1,436.44 406.79,436.44 424.79,417.44 424.79,406.44 
				436.75,416.71 436.79,417.44 439.79,420.44 440.48,421.48 443.79,426.44 460.79,415.44 473.79,397.44 475.02,389.38 
				480.79,351.44 480.79,335.71 			"/>
			<polygon class="st13" points="480.79,335.71 480.79,351.44 475.02,389.38 472.12,392.73 471.79,392.44 479.88,341.44 			"/>
			<polygon class="st14" points="480.79,329.44 480.79,335.71 479.88,341.44 453.79,359.44 440.77,359.03 440.79,358.44 
				453.79,344.44 			"/>
			<polygon class="st15" points="479.39,311.52 480.79,329.44 453.79,344.44 433.58,338.12 433.79,337.44 			"/>
			<polygon class="st16" points="479.88,341.44 471.79,392.44 453.79,390.44 453.79,359.44 			"/>
			<polygon class="st17" points="477.89,292.28 479.39,311.52 433.79,337.44 433.58,338.12 426.35,335.86 426.79,334.44 
				441.95,308.04 453.79,302.44 453.89,301.83 458.34,302.57 458.35,302.41 458.79,302.44 475.79,292.44 			"/>
			<polygon class="st18" points="478.79,176.44 462.79,177.44 462.88,177.63 427.79,144.44 426.84,144.42 435.79,135.44 			"/>
			<polygon class="st19" points="477.1,282.26 477.89,292.28 475.79,292.44 458.79,302.44 458.35,302.41 458.64,298.58 
				458.79,298.44 456.19,293.24 457.79,292.44 474.79,282.44 			"/>
			<polygon class="st20" points="475.79,265.44 477.1,282.26 474.79,282.44 457.79,292.44 456.19,293.24 453.79,288.44 
				439.79,279.44 429.29,281.3 429.26,281.4 428.85,281.3 414.59,284.23 406.83,290.63 399.97,283.58 399.78,283.56 399.79,283.44 
				409.79,278.44 433.79,274.44 434.79,274.44 444.78,274.75 466.79,275.44 467.79,275.44 467.79,272.44 457.79,257.44 
				471.57,245.62 			"/>
			<polygon class="st21" points="472.12,392.73 475.02,389.38 473.79,397.44 460.79,415.44 443.79,426.44 440.48,421.48 
				456.79,410.44 			"/>
			<polygon class="st22" points="438.92,388.25 438.79,383.44 444.79,376.44 421.79,358.44 440.77,359.03 453.79,359.44 
				453.79,390.44 471.79,392.44 472.12,392.73 456.79,410.44 440.48,421.48 439.79,420.44 			"/>
			<polygon class="st23" points="471.57,245.62 457.79,257.44 434.79,228.44 434.84,175.43 434.84,175.42 435.79,175.44 
				462.61,204.25 462.83,204.64 			"/>
			<polygon class="st24" points="467.79,272.44 467.79,275.44 466.79,275.44 449.11,265.6 466.79,274.44 456.79,261.44 
				424.39,254.57 424.42,254.44 432.79,253.44 457.79,257.44 			"/>
			<polygon class="st25" points="456.79,261.44 466.79,274.44 449.11,265.6 448.79,265.44 417.79,264.44 398.79,268.44 
				404.79,259.44 415.79,254.44 423.79,254.44 424.39,254.57 			"/>
			<polygon class="st26" points="466.79,275.44 444.78,274.75 444.79,274.44 424.42,264.66 449.11,265.6 			"/>
			<polygon class="st27" points="462.61,204.25 435.79,175.44 434.84,175.42 437.04,166.41 437.79,166.44 462.3,203.7 			"/>
			<polygon class="st28" points="456.19,293.24 458.79,298.44 458.64,298.58 445.58,285.57 429.26,281.41 429.26,281.4 
				429.29,281.3 439.79,279.44 453.79,288.44 			"/>
			<polygon class="st29" points="406.83,290.63 414.59,284.23 428.85,281.3 429.26,281.4 429.26,281.41 445.58,285.57 
				458.64,298.58 458.35,302.41 458.34,302.57 453.89,301.83 447.44,300.75 447.28,300.39 448.51,299.83 439.22,290.1 
				435.83,289.85 423.26,288.9 422.69,289.28 408.87,298.55 408.79,298.44 399.79,296.44 			"/>
			<path class="st30" d="M434.79,228.44l23,29l-25-4l-8.37,1l-0.03,0.13l-0.6-0.13h-8l-7-4l-14,15v13l0.91,1.42l-0.91,0.58l-2,11
				l-2,21l6,6v-6l1.61-16.14l1.39,0.14l6.47,5.22l14.5,7.11l16.96,1.27l4.23-2l-4.16,2.4l-15.92,23.88l-0.08-0.06l-18-6.82
				c11,13,11.61,12.87,12,13v9l-2.44,1.63l-6.56-5.63l-9-2l-13.29,5.06l-9-4h-12l-7.71,5.94l-0.12,0.14l-5.88-5.14l1-8l6-4l1-8
				l-22,20l-15,1l22-27l18.84-14.55l5.16,15.55l3-10l6-24l-5.52-6.9l-5.48-9.1l-1-11l-11-8l-33.02,4.83l-7.98,1.17l25-28v-56l42,1
				l56.05,0.98v0.01L434.79,228.44z"/>
			<polygon class="st29" points="453.89,301.83 453.79,302.44 441.95,308.04 437.72,310.04 420.76,308.77 406.26,301.66 
				399.79,296.44 408.79,298.44 408.87,298.55 408.48,298.81 420.14,303.71 423.61,303.97 423.79,304.44 429.87,304.44 
				437.09,304.98 447.28,300.39 447.44,300.75 			"/>
			<polygon class="st31" points="453.79,344.44 440.79,358.44 440.77,359.03 421.79,358.44 421.79,334.44 426.35,335.86 
				433.58,338.12 			"/>
			<polygon class="st32" points="449.11,265.6 424.42,264.66 444.79,274.44 444.78,274.75 434.79,274.44 433.79,274.44 
				423.79,271.44 405.79,273.44 395.7,279.86 394.79,278.44 398.79,268.44 417.79,264.44 448.79,265.44 			"/>
			<polygon class="st33" points="439.22,290.1 448.51,299.83 447.28,300.39 437.09,304.98 429.87,304.44 433.79,304.44 
				437.79,298.44 435.79,290.44 435.83,289.85 			"/>
			<polygon class="st34" points="432.79,430.44 445.6,450.42 432.75,466.5 428.79,471.44 408.79,453.44 408.13,453.91 
				407.79,453.44 			"/>
			<path class="st35" d="M413.35,351.07l2.44-1.63v-9c-0.39-0.13-1,0-12-13l18,6.82l0.08,0.06l-0.08,0.12v24l23,18l-6,7l-18-18
				l-7.98-2.15l-7.52-2.02l-10.15-2.73l-0.3-5.1h5.95h1h8L413.35,351.07z"/>
			<polygon class="st19" points="441.95,308.04 426.79,334.44 426.35,335.86 421.79,334.44 421.87,334.32 437.79,310.44 			"/>
			<polygon class="st21" points="438.92,388.25 439.79,420.44 436.79,417.44 436.75,416.71 434.79,384.44 434.82,384.41 			"/>
			<polygon class="st21" points="438.79,383.44 438.92,388.25 434.82,384.41 412.71,363.65 412.81,363.29 420.79,365.44 			"/>
			<polygon class="st36" points="435.79,290.44 437.79,298.44 433.79,304.44 429.87,304.44 426.79,304.21 423.61,303.97 
				420.79,296.44 422.79,289.44 422.69,289.28 423.26,288.9 435.83,289.85 			"/>
			<polygon class="st37" points="426.84,144.42 437.04,166.41 352.14,163.05 336.79,162.44 373.74,143.44 373.75,143.02 			"/>
			<polygon class="st27" points="437.04,166.41 434.84,175.42 378.79,174.44 336.79,173.44 352.14,163.05 			"/>
			<polygon class="st38" points="425.33,391.94 413.79,379.44 400.64,374.3 405.29,361.27 412.81,363.29 412.71,363.65 
				434.82,384.41 434.79,384.44 436.75,416.71 424.79,406.44 424.79,395.44 424.79,392.97 424.79,392.44 			"/>
			<polygon class="st18" points="435.79,135.44 426.84,144.42 373.75,143.02 351.79,142.44 339.53,142.79 374.79,112.44 			"/>
			<polygon class="st39" points="433.79,274.44 409.79,278.44 399.79,283.44 399.78,283.56 398.79,292.44 398.4,296.3 
				396.79,312.44 396.79,318.44 390.79,312.44 392.79,291.44 394.79,280.44 395.7,279.86 405.79,273.44 423.79,271.44 			"/>
			<polygon class="st40" points="360.16,488.17 360.79,488.44 389.79,491.44 428.79,471.44 432.75,466.5 427.34,493.64 
				358.79,523.44 358.41,523.95 275.79,462.44 280.3,430.09 292.79,452.44 308.79,466.44 339.02,479.23 339.03,479.24 			"/>
			<polygon class="st29" points="429.87,304.44 423.79,304.44 423.61,303.97 426.79,304.21 			"/>
			<polygon class="st41" points="428.79,471.44 389.79,491.44 360.79,488.44 360.16,488.17 408.13,453.91 408.79,453.44 			"/>
			<polygon class="st42" points="427.34,493.64 423.79,511.44 383.79,534.44 365.35,529.11 358.41,523.95 358.79,523.44 			"/>
			<path class="st43" d="M425.33,391.94l-0.54,0.5l-4,1l-2-3l-18-5l-25-1l-36-2l-7,6l-0.4,0.57l-0.1-0.07l-0.53-0.04l0.03-0.46l1-9
				l11-6l18-2.4l12-1.6l8,2l1,3c0-0.43,0.37-1.79,0.79-3.2l2.09-0.23l5.12-0.57l9.85,3.86l13.15,5.14L425.33,391.94z"/>
			<polygon class="st0" points="424.79,406.44 424.79,417.44 406.79,436.44 399.1,436.44 398.8,436.42 403.79,423.44 402.79,413.44 
				424.79,395.44 			"/>
			<polygon class="st34" points="424.79,392.97 424.79,395.44 402.79,413.44 381.79,420.44 361.79,417.44 346.79,407.44 
				331.79,392.44 331.52,392.42 331.76,388.9 332.29,388.94 332.39,389.01 349.29,400.94 374.29,404.94 399.29,404.94 			"/>
			<polygon class="st43" points="424.79,392.44 424.79,392.97 399.29,404.94 374.29,404.94 349.29,400.94 332.39,389.01 
				332.79,388.44 350.79,398.44 374.79,402.44 398.79,402.44 420.79,393.44 			"/>
			<polygon class="st33" points="420.79,296.44 423.61,303.97 420.14,303.71 408.48,298.81 408.87,298.55 422.69,289.28 
				422.79,289.44 			"/>
			<polygon class="st44" points="418.79,390.44 420.79,393.44 398.79,402.44 374.79,402.44 350.79,398.44 332.79,388.44 
				339.79,382.44 375.79,384.44 400.79,385.44 			"/>
			<polygon class="st45" points="415.79,254.44 414.79,254.44 404.79,259.44 398.79,268.44 394.79,278.44 394.79,265.44 
				408.79,250.44 			"/>
			<path class="st46" d="M406.79,345.44l6.56,5.63l-3.56,2.37h-8h-1l3-2l-5-3l-4,2v0.5v1.71v0.79l-12,5l-9-1l-11.4,0.6l-0.61,0.03
				l-3.99-5.63l-2.12-1.86l0.12-0.14l7.71-5.94h12l9,4l13.29-5.06L406.79,345.44z M361.79,351.44l17-1l-6-4l-10,2L361.79,351.44z"/>
			<polygon class="st47" points="407.79,453.44 408.13,453.91 360.16,488.17 339.03,479.24 358.79,462.44 381.79,446.44 			"/>
			<polygon class="st48" points="406.83,290.63 399.79,296.44 398.4,296.3 398.79,292.44 399.78,283.56 399.97,283.58 			"/>
			<path class="st26" d="M395.14,358.54l10.15,2.73l-4.65,13.03l-9.85-3.86l-5.12,0.57l-2.09,0.23c0.56-1.85,1.21-3.8,1.21-3.8
				l-1.42-6.15l11.42-2.85L395.14,358.54z"/>
			<polygon class="st49" points="402.79,413.44 403.79,423.44 398.8,436.42 381.79,435.44 375.79,437.44 365.56,435.58 
				365.79,435.44 359.79,428.44 361.79,417.44 381.79,420.44 			"/>
			<polygon class="st50" points="403.79,351.44 400.79,353.44 394.84,353.44 394.79,352.65 394.79,350.94 394.79,350.44 
				398.79,348.44 			"/>
			<polygon class="st51" points="399.1,436.44 398.79,436.44 398.8,436.42 			"/>
			<polygon class="st52" points="395.14,358.54 394.79,358.44 383.37,361.29 383.29,360.94 383.08,361.37 382.79,361.44 
				373.79,357.44 382.79,358.44 394.79,353.44 394.84,353.44 			"/>
			<path class="st38" d="M383.37,361.29l1.42,6.15c0,0-0.65,1.95-1.21,3.8l-1.79,0.2l-1.5-4.5l2.79-5.57L383.37,361.29z"/>
			<path class="st43" d="M381.79,371.44l1.79-0.2c-0.42,1.41-0.79,2.77-0.79,3.2L381.79,371.44z"/>
			<polygon class="st26" points="383.37,361.29 383.08,361.37 383.29,360.94 			"/>
			<polygon class="st26" points="361.78,358.07 362.39,358.04 373.79,357.44 382.79,361.44 383.08,361.37 380.29,366.94 
				381.79,371.44 373.79,369.44 361.79,371.04 354.79,358.44 			"/>
			<polygon class="st50" points="378.79,350.44 361.79,351.44 362.79,348.44 372.79,346.44 			"/>
			<polygon class="st39" points="370.27,279.54 375.79,286.44 369.79,310.44 366.79,320.44 361.63,304.89 368.69,299.44 
				366.39,297.1 370.79,290.44 363.79,280.44 342.79,274.44 342.79,273.44 345.33,271.75 348.79,269.44 367.79,276.44 
				368.59,277.44 			"/>
			<polygon class="st18" points="374.79,112.44 339.53,142.79 316.79,143.44 283.79,139.44 330.79,113.44 			"/>
			<polygon class="st37" points="373.75,143.02 373.74,143.44 336.79,162.44 308.79,173.44 298.24,171.01 316.79,143.44 
				339.53,142.79 351.79,142.44 			"/>
			<polygon class="st53" points="363.79,280.44 370.79,290.44 366.39,297.1 363.79,294.44 351.79,281.44 337.79,277.44 
				328.78,279.03 343.79,269.44 345.33,271.75 342.79,273.44 342.79,274.44 			"/>
			<polygon class="st32" points="364.79,270.44 370.27,279.54 368.59,277.44 367.79,276.44 348.79,269.44 345.33,271.75 
				343.79,269.44 343.55,269.02 351.79,264.44 352.79,264.44 			"/>
			<polygon class="st28" points="366.39,297.1 368.69,299.44 361.63,304.89 361.5,304.5 			"/>
			<polygon class="st28" points="363.79,294.44 366.39,297.1 361.5,304.5 361.63,304.89 342.79,319.44 329.8,319.02 342.79,305.44 
				343.79,305.44 358.79,299.44 			"/>
			<polygon class="st0" points="365.56,435.58 357.79,440.44 329.79,417.44 331.04,399.25 331.05,399.24 331.52,392.42 
				331.79,392.44 346.79,407.44 361.79,417.44 359.79,428.44 365.79,435.44 			"/>
			<polygon class="st54" points="365.35,529.11 338.79,521.44 269.79,478.44 275.79,462.44 358.41,523.95 			"/>
			<polygon class="st25" points="363.79,259.44 364.79,270.44 352.79,264.44 351.79,264.44 315.79,264.44 315.08,264.89 
				314.79,264.44 319.79,256.44 319.77,256.27 352.79,251.44 			"/>
			<polygon class="st29" points="351.79,281.44 363.79,294.44 356.79,296.44 342.79,285.44 339.87,285.44 327.79,285.44 
				326.79,285.44 316.79,294.44 317.98,295.09 317.79,295.44 311.75,295.99 306.79,296.44 306.79,292.44 307.37,291.95 
				307.79,292.44 328.78,279.03 337.79,277.44 			"/>
			<polygon class="st29" points="363.79,294.44 358.79,299.44 343.79,305.44 342.79,305.44 326.79,305.44 311.79,296.44 
				311.75,295.99 317.79,295.44 317.98,295.09 327.79,300.44 329.57,300.44 329.98,301.01 339.79,300.44 344.79,300.44 
				356.79,296.44 			"/>
			<polygon class="st38" points="319.25,402.98 320.79,374.44 335.79,359.44 339.01,359.27 339.03,359.27 354.79,358.44 
				361.79,371.04 343.79,373.44 332.79,379.44 331.79,388.44 331.76,388.9 331.52,392.42 331.05,399.24 331.04,399.25 
				318.79,411.44 			"/>
			<polygon class="st35" points="357.79,352.44 361.78,358.07 354.79,358.44 339.03,359.27 339.01,359.27 331.79,359.44 
				316.79,373.44 315.79,407.44 316.01,407.6 303.69,425.19 279.18,392.52 279.29,392.44 303.79,392.44 303.79,374.44 
				320.79,346.44 335.79,345.44 333.79,354.44 345.79,349.44 			"/>
			<polygon class="st34" points="266.69,381.41 266.55,377.39 266.18,366.75 266.18,366.56 266.17,366.56 265.79,355.44 
				266.79,336.44 267.92,336.44 269.79,336.44 273.23,384.6 273.79,392.44 297.79,426.44 304.63,426.44 308.79,426.44 312.1,421.48 
				358.79,462.44 339.03,479.24 339.02,479.23 269.79,409.44 269.03,409.86 268.79,409.44 266.79,384.44 			"/>
			<polygon class="st52" points="357.79,325.44 356.79,333.44 350.79,337.44 349.79,345.44 355.67,350.58 357.79,352.44 
				345.79,349.44 333.79,354.44 335.79,345.44 			"/>
			<polygon class="st33" points="356.79,296.44 344.79,300.44 339.79,300.44 342.79,291.44 339.87,285.44 342.79,285.44 			"/>
			<polygon class="st10" points="352.14,163.05 336.79,173.44 304.79,187.44 291.73,185.74 281.79,184.44 282.55,167.43 
				282.79,167.44 298.24,171.01 308.79,173.44 336.79,162.44 			"/>
			<polygon class="st26" points="351.79,264.44 343.55,269.02 342.79,269.44 320.79,270.44 302.79,280.44 298.79,282.44 
				308.79,269.44 308.56,269.09 315.08,264.89 315.79,264.44 			"/>
			<polygon class="st20" points="293.38,307.93 269.79,336.44 276.32,295.94 276.32,295.93 284.81,280.28 284.82,280.28 
				298.79,282.44 302.79,280.44 320.79,270.44 342.79,269.44 343.55,269.02 343.79,269.44 328.78,279.03 320.79,280.44 
				307.37,291.95 306.79,292.44 306.79,296.44 293.89,307.5 293.79,307.44 			"/>
			<polygon class="st36" points="339.87,285.44 342.79,291.44 339.79,300.44 329.57,300.44 324.98,294.01 327.79,285.44 			"/>
			<polygon class="st55" points="342.79,305.44 329.8,319.02 311.79,318.44 293.89,307.5 306.79,296.44 311.75,295.99 
				311.79,296.44 326.79,305.44 			"/>
			<polygon class="st19" points="329.8,319.02 342.79,319.44 320.79,346.44 290.79,351.44 269.79,336.44 293.38,307.93 
				293.89,307.5 311.79,318.44 			"/>
			<polygon class="st29" points="339.79,300.44 329.98,301.01 329.57,300.44 			"/>
			<polygon class="st41" points="269.79,409.44 339.02,479.23 308.79,466.44 292.79,452.44 280.3,430.09 273.79,418.44 
				269.03,409.86 			"/>
			<polygon class="st21" points="339.01,359.27 335.79,359.44 320.79,374.44 319.25,402.98 316.01,407.6 315.79,407.44 
				316.79,373.44 331.79,359.44 			"/>
			<polygon class="st22" points="336.79,173.44 336.79,229.44 311.79,257.44 301.79,273.44 308.56,269.09 308.79,269.44 
				298.79,282.44 284.82,280.28 284.81,280.28 304.79,243.44 293.79,206.1 304.79,187.44 			"/>
			<polygon class="st33" points="324.98,294.01 329.57,300.44 327.79,300.44 317.98,295.09 316.79,294.44 326.79,285.44 
				327.79,285.44 			"/>
			<polygon class="st33" points="328.78,279.03 307.79,292.44 307.37,291.95 320.79,280.44 			"/>
			<polygon class="st22" points="320.79,346.44 303.79,374.44 303.79,392.44 279.29,392.44 279.18,392.52 273.23,384.6 
				269.79,336.44 290.79,351.44 			"/>
			<polygon class="st33" points="319.77,256.27 319.79,256.44 314.79,264.44 315.08,264.89 308.56,269.09 301.79,273.44 
				311.79,257.44 			"/>
			<polygon class="st21" points="319.25,402.98 318.79,411.44 312.1,421.48 308.79,426.44 304.63,426.44 303.69,425.19 
				316.01,407.6 			"/>
			<polygon class="st18" points="316.79,143.44 298.24,171.01 282.79,167.44 282.55,167.43 283.79,139.44 			"/>
			<polygon class="st9" points="304.79,187.44 293.79,206.1 283.18,224.08 281.79,226.44 282.06,227.36 281.79,227.44 
				269.79,260.44 269.73,261.16 266.79,294.44 267.36,333.11 259.92,311.72 259.9,311.43 256.98,264.49 257.79,264.44 
				269.79,222.44 291.7,185.94 291.73,185.74 			"/>
			<polygon class="st16" points="293.79,206.1 304.79,243.44 284.81,280.28 276.32,295.93 279.79,274.44 289.79,244.44 
				283.79,224.44 283.18,224.08 			"/>
			<polygon class="st34" points="303.69,425.19 304.63,426.44 297.79,426.44 273.79,392.44 273.23,384.6 279.18,392.52 			"/>
			<polygon class="st56" points="293.89,307.5 293.38,307.93 293.79,307.44 			"/>
			<polygon class="st11" points="291.73,185.74 291.7,185.94 269.79,222.44 257.79,264.44 256.98,264.49 255.79,245.44 
				258.79,206.44 281.79,184.44 			"/>
			<polygon class="st9" points="283.79,224.44 289.79,244.44 279.79,274.44 276.32,295.93 276.32,295.94 269.79,336.44 
				267.92,336.44 267.92,334.72 277.79,273.44 286.79,243.44 282.06,227.36 281.79,226.44 283.18,224.08 			"/>
			<polygon class="st27" points="282.06,227.36 286.79,243.44 277.79,273.44 269.79,260.44 281.79,227.44 			"/>
			<polygon class="st27" points="269.79,260.44 277.79,273.44 267.92,334.72 267.36,333.11 266.79,294.44 269.73,261.16 			"/>
			<path class="st40" d="M267.92,334.72v1.72h-1.13l-6-13l-5-7l-4,4c0,0,0,0-2,11l-3.14,1.67l1.54-16.95l4.6-5.72l7,1l0.11-0.01
				l0.02,0.29l7.44,21.39L267.92,334.72z"/>
			<path class="st57" d="M260.79,323.44l6,13l-1,19l0.38,11.12l-7.38,0.88l-4-5v5h-2l-1-2l-5.6-27.28l0.46-5.05l3.14-1.67l2,4v-5
				l2-8l3-1l3,6L260.79,323.44z M258.79,350.44l4-7l-3.18-0.54l-2-9l-2.82,2.54l-2,8l3,15l7-3L258.79,350.44z"/>
			<polygon class="st58" points="266.55,377.39 266.69,381.41 258.79,379.44 256.79,375.44 			"/>
			<polygon class="st59" points="266.18,366.75 266.55,377.39 256.79,375.44 253.89,369.63 266.18,369.63 			"/>
			<polygon class="st58" points="266.18,366.75 266.18,369.63 253.89,369.63 253.88,369.63 252.79,367.44 254.79,367.44 
				254.79,362.44 258.79,367.44 266.17,366.56 			"/>
			<polygon class="st34" points="266.18,366.56 266.18,366.75 266.17,366.56 			"/>
			<polygon class="st60" points="262.79,343.44 258.79,350.44 262.79,356.44 255.79,359.44 252.79,344.44 254.79,336.44 
				257.61,333.9 259.61,342.9 			"/>
			<path class="st61" d="M255.79,316.44l5,7l-1,4l-3-6l-3,1l-2,8v5l-2-4c2-11,2-11,2-11L255.79,316.44z"/>
		</g>
		<g>
		</g>
	</g>
</g>
</svg>
