<?xml version="1.0" encoding="utf-8"?>
<!-- Generator: Adobe Illustrator 24.0.0, SVG Export Plug-In . SVG Version: 6.00 Build 0)  -->
<svg version="1.1" xmlns="http://www.w3.org/2000/svg" xmlns:xlink="http://www.w3.org/1999/xlink" x="0px" y="0px"
	 viewBox="0 95 614.5 540" style="enable-background:new 0 95 614.5 540;" xml:space="preserve">
<style type="text/css">
	.st0{fill:#FFFFFF;}
	.st1{fill:transparent;}
	.st2{fill:#B1BB44;}
	.st3{fill:#D39F9F;}
	.st4{fill:#CD8A67;}
	.st5{fill:#E26183;}
	.st6{fill:#623F86;}
	.st7{fill:#6C2745;}
	.st8{fill:#31252C;}
	.st9{fill:#FCD9D9;}
</style>
<g id="LINES">
	<polyline class="st6" points="444,225 519,255 507,396 531,423 534,602 381,593 379,440 	"/>
	<polygon class="st0" points="238.11,550.81 134.11,601.81 180.35,607.21 262.35,584.21 	"/>
	<path class="st0" d="M398,562c87,30,87,30,87,30l3,24l-88-18"/>
	<g id="XMLID_1_">
		<g>
			<polygon class="st7" points="472.41,211.59 473.82,213.84 470.24,244.3 446.66,267.19 446.66,244.01 431.57,210.82 
				425.05,204.21 412.08,191.08 441.74,201.16 472.4,211.58 			"/>
			<polygon class="st6" points="470.75,208.93 472.4,211.58 441.74,201.16 433,172 391,176 388,142 387.46,142.34 389,130 408,152 
				414.72,142.41 443.86,165.89 			"/>
			<polygon class="st2" points="464.94,362.84 472.11,387.02 462,428 454,443 446,449 437.97,444.85 446.33,421.26 455.72,416.02 
				458.73,403.95 450.5,396.86 450.5,360.84 457.05,356.9 			"/>
			<polygon class="st7" points="450.5,360.84 450.21,361.01 446.16,349.87 446.66,313.42 446.66,307.39 446.66,274.19 
				446.66,267.19 470.24,244.3 467.79,265.14 461.75,277.21 457.05,356.9 			"/>
			<polygon class="st5" points="458.73,403.95 455.72,416.02 446.33,421.26 450.5,409.5 450.5,396.86 			"/>
			<polygon class="st5" points="445.16,421.91 445.4,422.35 437.61,431.11 428.56,452.23 413.47,473.36 406.95,481.51 391,448 
				427,419 429,384 450.21,391 450.21,396.61 450.5,396.86 450.5,409.5 446.33,421.26 			"/>
			<polygon class="st4" points="450.5,360.84 450.5,396.86 450.21,396.61 450.21,391 450.21,361.01 			"/>
			<polygon class="st4" points="450.21,361.01 450.21,391 429,384 427,419 391,448 406.95,481.51 401.4,488.45 386.31,497.5 
				380.27,467.32 375.84,467.32 375.25,456.26 383.29,458.27 380.27,452.23 383.29,440.16 374.24,425.08 354.45,415.18 
				360.91,405.08 368,394 378,414 406,407 407.13,377 407.61,364.39 420,374 431,364 426.75,342 428.29,341.01 433,338 
				431.18,332.29 446.66,307.39 446.66,313.42 446.16,349.87 			"/>
			<polygon class="st3" points="446.66,274.19 446.66,307.39 431.18,332.29 428.85,325 420.02,297.33 422.52,298.33 425.54,307.39 
				428.56,304.37 425.54,292.3 419.42,288.63 419,288.38 446.66,267.19 			"/>
			<polygon class="st3" points="446.66,244.01 446.66,267.19 419,288.38 419,288.37 413,266 425.01,204.25 425.05,204.21 
				431.57,210.82 			"/>
			<polygon class="st7" points="437.97,444.85 422.54,488.39 382,523 380,501 347,516 352,544 329.89,567.49 329.89,567.5 
				300.12,569.06 303,548 248,494 235,528 245.18,543.32 218.76,522.19 214.74,518.97 214.77,518.32 225.98,494.04 226.37,494.48 
				241.46,467.32 256.55,458.27 256.73,458.78 268.62,491.46 275.57,495.32 295.78,506.55 296,507 321.47,523.98 335,533 335,507 
				335.01,506.55 353.11,497.5 357.09,489.54 377,489 375.84,467.32 380.27,467.32 386.31,497.5 401.4,488.45 406.95,481.51 
				413.47,473.36 428.56,452.23 437.61,431.11 445.4,422.35 445.16,421.91 446.33,421.26 			"/>
			<polygon class="st6" points="387.46,142.34 388,142 391,176 433,172 441.74,201.16 412.08,191.08 412,191 407.92,189.67 
				407.88,189.65 389.56,183.43 389.54,183.67 380.27,180.64 373.25,180.64 369.3,168.89 353.46,163.93 			"/>
			<polygon class="st6" points="431.18,332.29 433,338 428.29,341.01 427,339 			"/>
			<path class="st6" d="M428.85,325l2.33,7.29L427,339l-20,10l-8.62-0.52l0.12-1.98l14.11-8.46c0.47-0.28,0.58-0.92,0.22-1.34
				l-5.33-4.2l0.08-0.38l6.92,1.38l3-3v-1l-2.34-3.38l2.34-1.62L428.85,325z"/>
			<polygon class="st3" points="426.75,342 431,364 420,374 407.61,364.39 408,354 			"/>
			<polygon class="st6" points="420.02,297.33 428.85,325 417.5,324.5 415.16,326.12 408.5,316.5 402.79,315.28 392.5,299.5 
				375.83,292.3 389.33,292.3 407.43,292.3 			"/>
			<polygon class="st7" points="425.54,292.3 428.56,304.37 425.54,307.39 422.52,298.33 420.02,297.33 418,291 419.42,288.63 			
				"/>
			<polygon class="st5" points="427,339 428.29,341.01 426.75,342 408,354 407.61,364.39 407.13,377 388,384 364.56,357.63 374,347 
				398.38,348.48 407,349 			"/>
			<polygon class="st3" points="388.11,198.11 389.54,183.67 407.88,189.65 407.92,189.67 412.08,191.08 425.05,204.21 
				425.01,204.25 413,266 419,288.37 410.45,283.24 386.31,274.19 380.6,274.19 			"/>
			<polygon class="st8" points="392.59,532.54 378.82,541.72 341.04,566.91 329.89,567.5 329.89,567.49 352,544 347,516 380,501 
				382,523 422.54,488.39 422.52,488.45 399.5,524.25 395.36,530.69 			"/>
			<polygon class="st8" points="347.26,286.62 347.08,286.26 362.17,274.19 380.6,274.19 386.31,274.19 410.45,283.24 419,288.37 
				419,288.38 419.42,288.63 418,291 420.02,297.33 407.43,292.3 389.33,292.3 375.83,292.3 374.24,292.3 350.1,292.3 			"/>
			<polygon class="st8" points="366.98,314.36 380.5,310.5 402.79,315.28 408.5,316.5 415.16,326.12 417.5,329.5 417.5,330.5 
				414.5,333.5 407.58,332.12 404.5,331.5 394.05,325.23 394,325 389.5,322.5 389.38,322.5 389.33,322.47 377.47,322.47 
				377.26,322.47 377.2,322.5 376.5,322.5 375.75,323.25 367.5,327.5 355.67,330.46 355.53,330.42 357.5,324.5 366.5,314.5 			"/>
			<polygon class="st6" points="414.72,142.41 408,152 389,130 387.46,142.34 353.46,163.93 342.5,160.5 346.06,168.63 
				327.15,180.64 281.26,180.64 288.14,171.22 362,149 359,139 359.22,136.52 376,138 365,125 328,131 323,123 345,123 340,115 
				272.37,108.04 307.85,99.17 350.1,111.24 398.38,129.34 			"/>
			<path class="st7" d="M412.83,336.7c0.36,0.42,0.25,1.06-0.22,1.34l-14.11,8.46l-19.73-5.92h2.69h16.92l7.12-6.08l-1.08-2.97
				l-10.35-6.22l-0.02-0.08l10.45,6.27l3.08,0.62l-0.08,0.38L412.83,336.7z"/>
			<polygon class="st2" points="407.13,377 406,407 378,414 368,394 367.54,392.95 388,384 			"/>
			<polygon class="st3" points="404.42,331.53 405.5,334.5 398.38,340.58 381.46,340.58 392.34,337.56 395.36,331.53 394.07,325.31 
							"/>
			<polygon class="st2" points="392.5,299.5 402.79,315.28 380.5,310.5 366.98,314.36 364.5,299.5 349.5,313.5 335.77,292.09 
				335.77,292.08 347.26,286.62 350.1,292.3 374.24,292.3 375.83,292.3 			"/>
			<polygon class="st5" points="392.59,532.54 395.36,530.69 399.5,524.25 399.5,597.5 388.17,607.21 378.82,541.72 			"/>
			<polygon class="st2" points="398.5,346.5 398.38,348.48 374,347 364.56,357.63 364,357 357.25,355 377.39,340.58 378.77,340.58 
							"/>
			<polygon class="st8" points="394.07,325.31 395.36,331.53 392.34,337.56 381.46,340.58 374.24,337.56 374.24,331.53 374,325 
				375.5,323.5 377.5,322.5 380.5,322.5 386.24,322.93 383.22,328.97 389.5,328.5 389.5,322.57 			"/>
			<polygon class="st2" points="373.25,180.64 380.27,180.64 389.54,183.67 388.11,198.11 357.21,180.64 			"/>
			<polygon class="st3" points="389.5,322.57 389.5,328.5 383.22,328.97 386.24,322.93 380.5,322.5 389.38,322.5 			"/>
			<polygon class="st2" points="389.5,322.5 389.5,322.57 389.38,322.5 			"/>
			<polygon class="st1" points="388.17,607.21 389.5,616.5 380.5,631.5 327.5,636.5 331.56,608.59 343.5,625.5 371.5,621.5 			"/>
			<polygon class="st3" points="389.38,322.5 380.5,322.5 377.5,322.5 377.47,322.47 389.33,322.47 			"/>
			<polygon class="st2" points="300.12,569.06 329.89,567.5 341.04,566.91 378.82,541.72 388.17,607.21 371.5,621.5 343.5,625.5 
				331.56,608.59 335.5,581.5 265.5,584.5 217.23,543.5 218.76,522.19 245.18,543.32 245.18,543.33 259.57,554.84 283.71,569.92 			
				"/>
			<polygon class="st2" points="362.17,274 346.56,274 346,265 359,241 334,238 326,262 323,238 290.62,239.38 284,214 
				341.06,180.64 357.21,180.64 388.11,198.11 380.6,274.19 362.17,274.19 			"/>
			<polygon class="st4" points="364.56,357.63 388,384 367.54,392.95 356.13,397.94 356.13,388.86 350.13,373.85 			"/>
			<polygon class="st7" points="354.45,415.18 374.24,425.08 383.29,440.16 380.27,452.23 383.29,458.27 375.25,456.26 374,433 
				356,425 350.64,433.68 329.06,429.75 326,424 331.45,408.56 332.41,408.48 350.1,413 			"/>
			<polygon class="st3" points="377.39,340.58 377.26,340.58 365.19,337.56 363.5,332.5 367.5,327.5 375.5,323.5 374,325 
				374.24,331.53 374.24,337.56 381.46,340.58 378.77,340.58 			"/>
			<polygon class="st8" points="377.5,322.5 375.5,323.5 375.75,323.25 377.2,322.5 			"/>
			<polygon class="st3" points="377.5,322.5 377.2,322.5 377.26,322.47 377.47,322.47 			"/>
			<polygon class="st6" points="377.39,340.58 357.25,355 337,349 336.8,349.11 336.57,348.69 336.54,348.31 340.5,326.5 
				355.53,330.42 355.5,330.5 355.67,330.46 363.5,332.5 365.19,337.56 377.26,340.58 			"/>
			<polygon class="st4" points="375.84,467.32 377,489 357.09,489.54 368.2,467.32 			"/>
			<polygon class="st2" points="365,125 376,138 359.22,136.52 342,135 343,147 359,139 362,149 288.14,171.22 308,144 268,132 
				251,162 237.5,170.65 235,145 271.83,108.17 272.37,108.04 340,115 345,123 323,123 328,131 			"/>
			<polygon class="st1" points="375.25,456.26 375.84,467.32 368.2,467.32 357.09,489.54 340,490 337,457 336.91,456.44 
				344.06,455.25 359.15,449.22 361.26,447.11 369.86,448.46 371.22,455.25 			"/>
			<polygon class="st3" points="375.75,323.25 375.5,323.5 367.5,327.5 			"/>
			<polygon class="st8" points="374,433 375.25,456.26 371.22,455.25 369.86,448.46 369.47,446.51 368.2,440.16 353.11,434.13 
				350.64,433.68 356,425 			"/>
			<polygon class="st1" points="369.3,168.89 373.25,180.64 357.21,180.64 349.37,176.21 346.06,168.63 353.46,163.93 			"/>
			<polygon class="st7" points="369.47,446.51 369.86,448.46 361.26,447.11 362.92,445.45 			"/>
			<polygon class="st1" points="368.2,440.16 369.47,446.51 362.92,445.45 363.68,444.69 347.23,439.21 350.64,433.68 
				353.11,434.13 			"/>
			<polygon class="st4" points="367.54,392.95 368,394 360.91,405.08 359.15,403.95 356.13,400.93 356.13,397.94 			"/>
			<polygon class="st8" points="367.5,327.5 363.5,332.5 355.67,330.46 			"/>
			<polygon class="st6" points="364.5,299.5 366.98,314.36 366.5,314.5 357.5,324.5 355.53,330.42 340.5,326.5 336.54,348.31 
				335.86,340.86 335.01,331.53 336.57,307.61 335.77,292.09 349.5,313.5 			"/>
			<polygon class="st6" points="364,357 364.56,357.63 350.13,373.85 350.1,373.77 336.8,349.11 337,349 357.25,355 			"/>
			<polygon class="st6" points="363.68,444.69 362.92,445.45 345.14,442.59 347.23,439.21 			"/>
			<polygon class="st7" points="362.92,445.45 361.26,447.11 344.01,444.41 345.14,442.59 			"/>
			<polygon class="st2" points="346.56,274 362.17,274 362.17,274.19 347.08,286.26 347.26,286.62 335.77,292.08 335.54,287.81 
				334,258 337,258 337,274 			"/>
			<polygon class="st6" points="361.26,447.11 359.15,449.22 344.06,455.25 336.91,456.44 336.55,456.5 344.01,444.41 			"/>
			<polygon class="st4" points="360.91,405.08 354.45,415.18 350.1,413 332.41,408.48 331.45,408.56 331.89,407.32 336.55,405.99 
				338.03,406.97 359.15,403.95 			"/>
			<polygon class="st6" points="359.22,136.52 359,139 343,147 342,135 			"/>
			<path class="st7" d="M352.94,397.85l0.17,0.07l3.02,3.01l3.02,3.02l-21.12,3.02l-1.48-0.98l-7.58-5.06
				c9.06-9.05,9.06-9.05,9.06-9.05L352.94,397.85z"/>
			<polygon class="st1" points="359,241 346,265 346.56,274 337,274 337,258 334,258 335.54,287.81 323,291 313,246 305,274 
				293,274 292.76,274.19 267.15,274.19 296,260 290.62,239.38 323,238 326,262 334,238 			"/>
			<polygon class="st2" points="349.37,176.21 357.21,180.64 341.06,180.64 349,176 			"/>
			<path class="st6" d="M357.09,489.54l-3.98,7.96l-18.1,9.05l-3.02-12.07v-12.07v-18.1h-24.14l-7.27,7.27L281,464l-10,15
				l4.57,16.32l-6.95-3.86l-11.89-32.68l0.77-0.28l1.26-13.39l0.76,0.46C260,447,260,447,260,447l1.53-0.23l4.07,2.45l1.55,0.44
				l13.54,3.87h0.01l6.03,1.72l18.1,3.02l9.05-3.02l12.08,3.02l10.59-1.77l0.36-0.06L337,457l3,33L357.09,489.54z"/>
			<polygon class="st6" points="350.13,373.85 356.13,388.86 356.13,397.94 356.13,400.93 353.11,397.92 352.94,397.85 347,383 
				335,377 328.66,374.62 324.12,342.85 335,340.94 335.86,340.86 336.54,348.31 336.57,348.69 336.8,349.11 350.1,373.77 			"/>
			<polygon class="st2" points="355.67,330.46 355.5,330.5 355.53,330.42 			"/>
			<polygon class="st1" points="353.46,163.93 346.06,168.63 342.5,160.5 			"/>
			<path class="st5" d="M331.89,407.32L326,409l-17-1l-6.46-7.07h8.33l-3.44-3.43L331,388l4-11l12,6l5.94,14.85l-14.91-5.97
				c0,0,0,0-9.06,9.05l7.58,5.06L331.89,407.32z"/>
			<polygon class="st5" points="350.64,433.68 347.23,439.21 345.57,438.66 333.79,438.66 329.06,429.75 			"/>
			<polygon class="st6" points="346.06,168.63 349.37,176.21 349,176 341.06,180.64 327.15,180.64 			"/>
			<polygon class="st3" points="347.23,439.21 345.14,442.59 332,440.47 329.38,440.53 328.04,438.66 333.79,438.66 345.57,438.66 
							"/>
			<polygon class="st7" points="345.14,442.59 344.01,444.41 335,443 331.31,443.23 329.38,440.53 332,440.47 			"/>
			<polygon class="st3" points="344.01,444.41 336.55,456.5 325.96,458.27 313.88,455.25 304.83,458.27 286.73,455.25 280.7,453.53 
				302,444 305,452 334,447 331.31,443.23 335,443 			"/>
			<polygon class="st1" points="281.26,180.64 327.15,180.64 341.06,180.64 284,214 290.62,239.38 276,240 258,217 226,247 
				246.68,279.13 232.41,286.26 229.45,291 219,291 208.31,306.88 204.77,292.86 208.27,283.24 211.28,247.03 223.35,216.86 
				280.69,180.64 			"/>
			<polygon class="st5" points="335.77,292.09 336.57,307.61 335.01,331.53 335.86,340.86 335,340.94 324.12,342.85 323,335 
				306.01,333.11 307.85,328.51 307.85,316.44 308,316.44 310.87,311.57 323,291 335.54,287.81 335.77,292.08 335.76,292.08 			"/>
			<polygon class="st5" points="335.77,292.08 335.77,292.09 335.76,292.08 			"/>
			<polygon class="st6" points="335.5,581.5 331.56,608.59 331.5,608.5 243.5,589.5 215.92,561.92 217.23,543.5 265.5,584.5 			"/>
			<polygon class="st4" points="331.99,494.48 335.01,506.55 335,507 335,533 321.47,523.98 329,496 312,476 300.58,471.58 
				307.85,464.31 331.99,464.31 331.99,482.41 			"/>
			<polygon class="st2" points="328.66,374.62 335,377 331,388 307.43,397.5 301.97,392.03 302,392 298.02,388.02 319,371 			"/>
			<polygon class="st2" points="331.31,443.23 334,447 305,452 302,444 302.02,443.47 319,444 			"/>
			<path class="st6" d="M329.06,429.75l4.73,8.91h-5.75L324,433l-19.31,5.66h-25.51l-17.98,5.13L259,444
				c0.04,0.13,0.09,0.26,0.13,0.38l-0.31,0.09l-5.29-3.95v-0.36l15.09-6.03l30.18-6.04l12.07,3.02l4.13-1.38l4.92-1.64
				L329.06,429.75z"/>
			<path class="st7" d="M331.45,408.56L326,424l3.06,5.75l-9.14-1.66l-4.92,1.64V414l-67.2,19.25c0.8-1.66,1.65-3.3,2.52-4.93
				L267,421l1.82-5.47l8.85-2.53l24.14-6.03l12.07,3.02L326,409L331.45,408.56z"/>
			<polygon class="st7" points="331.31,443.23 319,444 302.02,443.47 289.6,443.08 295.83,441.26 329.38,440.53 			"/>
			<polygon class="st2" points="329.38,440.53 295.83,441.26 304.69,438.66 309.36,438.66 328.04,438.66 			"/>
			<polygon class="st8" points="312,476 329,496 321.47,523.98 296,507 295.78,506.55 304.83,494.48 295.78,476.38 300.58,471.58 
							"/>
			<path class="st0" d="M293.21,368.65c0.16-0.62,0.38-1.41,0.68-2.42c0.84-2.79,2.29-7.23,4.83-14.25
				c0.55-1.53,1.16-3.19,1.82-4.98h0.01l23.57-4.15l4.54,31.77L319,371l-20.98,17.02L296,386l-6-11.1l2.76-4.14
				C292.76,370.76,292.76,370.35,293.21,368.65z"/>
			<polygon class="st5" points="324,433 328.04,438.66 309.36,438.66 304.69,438.66 			"/>
			<polygon class="st1" points="283.71,400.93 298.8,400.93 302.54,400.93 309,408 326,409 313.88,409.99 301.81,406.97 277.67,413 
				268.82,415.53 278.01,387.97 280.69,388.86 			"/>
			<path class="st1" d="M323,335l1.12,7.85L300.55,347h-0.01c0.4-1.08,0.83-2.22,1.27-3.4l4.2-10.49L323,335z"/>
			<polygon class="st7" points="313,246 323,291 310.87,311.57 311,299 298.72,293.83 298.72,293.82 304.83,292.3 292.76,274.19 
				293,274 305,274 			"/>
			<path class="st7" d="M253.53,440.52v11.71l-12.07,6.04l3.02-9.05v-8.66c1.03-2.47,2.13-4.91,3.32-7.31L315,414v15.73l-4.13,1.38
				l-12.07-3.02l-30.18,6.04l-15.09,6.03V440.52z"/>
			<polygon class="st7" points="311,299 310.87,311.57 298.72,293.83 			"/>
			<path class="st6" d="M306.01,333.11l-4.2,10.49c-0.44,1.18-0.87,2.32-1.27,3.4c-0.66,1.79-1.27,3.45-1.82,4.98l-0.22-9.48l-12-4
				l6-2l-1.06-5.31l-1.94-9.69l-17.86-11.1h-18.11l-9.23,3.08L246,305l9-9.69h16.64h21.12l5.96-1.49v0.01l12.15,17.74l-2.87,4.87
				h-0.15v12.07L306.01,333.11z"/>
			<polygon class="st7" points="302.54,400.93 298.8,400.93 283.71,400.93 290.64,394 293.25,391.88 301.81,391.88 301.97,392.03 
				307.43,397.5 310.87,400.93 			"/>
			<polygon class="st1" points="308,144 288.14,171.22 239,186 237.5,170.65 251,162 268,132 			"/>
			<polygon class="st8" points="292.76,274.19 304.83,292.3 298.72,293.82 292.76,295.31 271.64,295.31 255,295.31 259,291 
				229.45,291 232.41,286.26 246.68,279.13 256.55,274.19 267.15,274.19 			"/>
			<polygon class="st5" points="295.78,476.38 304.83,494.48 295.78,506.55 275.57,495.32 271,479 281,464 300.58,471.58 			"/>
			<polygon class="st3" points="304.69,438.66 295.83,441.26 286,441.47 261.2,443.79 279.18,438.66 			"/>
			<polygon class="st6" points="303,548 300.12,569.06 283.71,569.92 259.57,554.84 245.18,543.33 245.18,543.32 235,528 248,494 
							"/>
			<polygon class="st2" points="302.02,443.47 302,444 280.7,453.53 280.69,453.53 267.15,449.66 289.6,443.08 			"/>
			<polygon class="st9" points="302,392 301.97,392.03 301.81,391.88 293.25,391.88 298.02,388.02 			"/>
			<path class="st2" d="M290.56,351.91L290,352l-34.13,7.68l-4.98-7.13l13.61,1.95l3-10l0.66-1.66l3.34,0.66l15-5l12,4l0.22,9.48
				c-2.54,7.02-3.99,11.46-4.83,14.25c-0.3,1.01-0.52,1.8-0.68,2.42L290.56,351.91z"/>
			<polygon class="st7" points="298.02,388.02 293.25,391.88 292.76,391.88 290.64,394 283.71,400.93 280.69,388.86 290,374.9 
				296,386 			"/>
			<polygon class="st0" points="290.62,239.38 296,260 267.15,274.19 256.55,274.19 246.68,279.13 226,247 258,217 276,240 			"/>
			<path class="st7" d="M295.83,441.26l-6.23,1.82L287,443l-25.47,3.77l-2.01-1.2c-0.1-0.32-0.23-0.71-0.39-1.19l2.07-0.59
				l24.8-2.32L295.83,441.26z"/>
			<path class="st2" d="M290.56,351.91l2.65,16.74c-0.45,1.7-0.45,2.11-0.45,2.11L290,374.9l-9.31,13.96l-2.68-0.89L290,352
				L290.56,351.91z"/>
			<polygon class="st6" points="291.44,331.19 292.5,336.5 286.5,338.5 283.69,337.56 283.71,337.56 289.74,331.53 			"/>
			<polygon class="st7" points="289.5,321.5 291.44,331.19 289.74,331.53 280.69,322.47 275.01,321.05 275,321 281.5,322.5 			"/>
			<path class="st3" d="M290,352l-11.99,35.97l-9.19,27.56l-12.27,3.51l-3.58,4.48c-0.91,1.59-1.79,3.19-2.65,4.8l-14.9,6.54v0.01
				L226,439l-17-30l6.33-1.51L255,398c0,0-1-2,0-21l-2.48-7.93L261,367l-5.13-7.32L290,352z"/>
			<polygon class="st3" points="283.69,337.56 269.66,339.9 274.65,334.54 276,329 275.01,321.05 280.69,322.47 289.74,331.53 
				283.71,337.56 			"/>
			<polygon class="st3" points="289.6,443.08 267.15,449.66 265.6,449.22 261.53,446.77 287,443 			"/>
			<polygon class="st8" points="289.5,321.5 281.5,322.5 275,321 272.26,320.37 268.62,319.46 267.8,319.62 251.5,322.5 
				241.6,328.44 241.46,328.51 241.46,328.52 235.38,331.22 232.5,332.5 229.5,331.5 232.14,324.78 242.5,322.5 244.3,313.48 
				253.53,310.4 271.64,310.4 			"/>
			<polygon class="st1" points="288.14,171.22 281.26,180.64 280.69,180.64 223.35,216.86 211.28,247.03 208.27,283.24 
				204.77,292.86 200,274 178.52,247.03 178.09,244.01 181.11,222.89 205.25,195.73 208.27,183.66 217.32,150.47 220.34,146.44 
				212,187 237.5,170.65 239,186 			"/>
			<polygon class="st6" points="286.5,338.5 271.5,343.5 268.16,342.84 269.32,339.96 269.6,339.91 269.66,339.9 283.69,337.56 			
				"/>
			<polygon class="st8" points="269.33,339.93 263.24,340.29 257.65,339.61 253.53,334.54 253.53,325.49 252.11,323.18 
				252.83,322.82 265.17,320.15 268.5,319.5 265.6,325.49 264.5,327.5 265.5,328.5 268.62,328.51 268.5,319.5 272.26,320.37 
				275.01,321.05 276,329 274.65,334.54 269.66,339.9 269.6,339.91 			"/>
			<polygon class="st1" points="271.83,108.17 235,145 237.5,170.65 212,187 220.34,146.44 235.42,126.32 271.64,108.22 			"/>
			<polygon class="st6" points="269.32,339.96 268.16,342.84 267.5,344.5 242.5,340.5 235.5,331.5 235.38,331.22 241.46,328.52 
				241.5,333.5 248.5,338.5 257.65,339.61 258.44,340.58 263.24,340.29 265.6,340.58 			"/>
			<path class="st8" d="M268.82,415.53L267,421l-16.68,7.32c0.86-1.61,1.74-3.21,2.65-4.8l3.58-4.48L268.82,415.53z"/>
			<polygon class="st3" points="268.5,319.5 268.62,328.51 265.5,328.5 264.5,327.5 265.6,325.49 			"/>
			<polygon class="st5" points="267.5,344.5 264.5,354.5 250.89,352.55 250.88,352.55 247,347 231.18,350.77 235.5,331.5 
				242.5,340.5 			"/>
			<path class="st7" d="M261.53,446.77L260,447c0,0,0,0-0.48-1.43L261.53,446.77z"/>
			<path class="st7" d="M261.2,443.79l-2.07,0.59c-0.04-0.12-0.09-0.25-0.13-0.38L261.2,443.79z"/>
			<polygon class="st0" points="255.87,359.68 261,367 252.52,369.07 250,361 			"/>
			<path class="st3" d="M259.52,445.57l-0.76-0.46l0.06-0.64l0.31-0.09C259.29,444.86,259.42,445.25,259.52,445.57z"/>
			<path class="st7" d="M259,291l-4,4.31h-7.5l-15.09,3.02c0,0,0,0-15.09,18.11v-6.04l12.13-19.4H259z"/>
			<polygon class="st3" points="258.82,444.47 258.76,445.11 258.06,444.69 			"/>
			<path class="st2" d="M225.98,494.04l-20.73-23.7l-10.03-18.97h0.01L222,467l13.42-32.13v-0.01l14.9-6.54
				c-0.87,1.63-1.72,3.27-2.52,4.93c-1.19,2.4-2.29,4.84-3.32,7.31v8.66l-3.02,9.05l12.07-6.04v-11.71l5.29,3.95l-0.76,0.22
				l0.7,0.42l-1.26,13.39l-0.77,0.28l-0.18-0.51l-15.09,9.05l-15.09,27.16L225.98,494.04z"/>
			<polygon class="st0" points="220.08,353.41 231.18,350.77 247,347 250.88,352.55 250.89,352.55 255.87,359.68 250,361 
				252.52,369.07 220,377 203.72,400.19 203.52,400.06 205,357 			"/>
			<path class="st1" d="M252.52,369.07L255,377c-1,19,0,21,0,21l-39.67,9.49l-11.61-7.3L220,377L252.52,369.07z"/>
			<path class="st2" d="M255,295.31l-9,9.69l-1.7,8.48l-8.88,2.96l-3.28,8.34l-18.28,4.03l-5.55-21.93L219,291h10.45l-12.13,19.4
				v6.04c15.09-18.11,15.09-18.11,15.09-18.11l15.09-3.02H255z"/>
			<polygon class="st7" points="244.3,313.48 242.5,322.5 232.14,324.78 235.42,316.44 			"/>
			<polygon class="st2" points="235.38,331.22 235.5,331.5 231.18,350.77 220.08,353.41 213.86,328.81 232.14,324.78 229.5,331.5 
				232.5,332.5 			"/>
			<path class="st1" d="M187.59,414.7c-0.15-1.53-0.3-3.1-0.45-4.71l-1.73-21.31l18.11,11.38l-0.02,0.44l0.22-0.31l11.61,7.3
				L209,409l17,30l9.42-4.13L222,467l-26.77-15.63h-0.01l-1.04-1.97l-1-24.32l-5.21-6.41C187.84,417.38,187.72,416.06,187.59,414.7z
				"/>
			<path class="st8" d="M214.77,518.32l-0.22,0.5l-0.25-0.2l-15.6-33.42l-5.52-11.84c0,0,0,0-3.88-40.74
				c-0.4-4.2-0.85-8.83-1.33-13.95l5.21,6.41l1,24.32l1.04,1.97l10.03,18.97l20.73,23.7L214.77,518.32z"/>
			<polygon class="st1" points="213.86,328.81 220.08,353.41 205,357 203.52,400.06 185.41,388.68 184.12,372.78 184.11,372.78 
				184.12,370.76 196.19,316.44 204.77,292.86 208.31,306.88 			"/>
			<polygon class="st7" points="214.55,518.82 214.77,518.32 214.74,518.97 			"/>
			<polygon class="st1" points="200,274 204.77,292.86 196.19,316.44 184.12,370.76 181.11,364.72 181.11,349.63 181.11,322.47 
				184.12,301.35 181.11,265.14 178.52,247.03 			"/>
			<polygon class="st2" points="203.72,400.19 203.5,400.5 203.52,400.06 			"/>
			<path class="st1" d="M189.3,432.62L184,442l-7-3l-3-12l-7-14l-4-30.17l6.04-18.11h12.07l3.01,6.04l-0.01,2.02L184,387l-6,5l1,12
				l2.11,5.99l6.48,4.71c0.13,1.36,0.25,2.68,0.38,3.97C188.45,423.79,188.9,428.42,189.3,432.62z"/>
			<path class="st1" d="M187.59,414.7l-6.48-4.71L179,404l-1-12l6-5l0.11-14.22h0.01l1.29,15.9l1.73,21.31
				C187.29,411.6,187.44,413.17,187.59,414.7z"/>
		</g>
		<g>
		</g>
	</g>
	<polyline class="st1" points="249.5,119.29 254,159 256,158 254,120 	"/>
</g>
</svg>
