<?xml version="1.0" encoding="utf-8"?>
<!-- Generator: Adobe Illustrator 24.0.0, SVG Export Plug-In . SVG Version: 6.00 Build 0)  -->
<svg version="1.1" xmlns="http://www.w3.org/2000/svg" xmlns:xlink="http://www.w3.org/1999/xlink" x="0px" y="0px"
	 viewBox="-100 100 820 768" style="enable-background:new -100 100 820 768;" xml:space="preserve">
<style type="text/css">
	.st0{fill:#401D67;}
	.st1{fill:#4C3583;}
	.st2{fill:#673C7A;}
	.st3{fill:#CB81AB;}
	.st4{fill:#CD80A9;}
	.st5{fill:#FF7441;}
	.st6{fill:#F9911D;}
	.st7{fill:#F7921D;}
	.st8{fill:#FCAF3C;}
	.st9{fill:#1C0B35;}
	.st10{fill:#FFBF24;}
	.st11{fill:#F9B138;}
	.st12{fill:#F3C4D2;}
	.st13{fill:#FEAF3E;}
	.st14{fill:#FBB03B;}
	.st15{fill:#454545;}
	.st16{fill:#140D35;}
	.st17{fill:#765A8B;}
	.st18{fill:#625EAF;}
	.st19{fill:#C2C2C2;}
	.st20{fill:#190B2E;}
	.st21{fill:#FFF9FF;}
	.st22{fill:#FF8F28;}
	.st23{fill:#CB8AA7;}
	.st24{fill:#C1E8FA;}
	.st25{fill:#4E2A9B;}
	.st26{fill:#FF6F5A;}
	.st27{fill:#1D0735;}
	.st28{fill:#3F1E67;}
	.st29{fill:#421C67;}
	.st30{fill:#019549;}
	.st31{fill:#FEED22;}
	.st32{fill:#3F1D68;}
	.st33{fill:#FFB03A;}
	.st34{fill:#180022;}
	.st35{fill:#FFFFFF;}
	.st36{fill:#F67884;}
	.st37{fill:#4C4F96;}
	.st38{fill:#FFAE3A;}
	.st39{fill:#9F5EA9;}
	.st40{fill:#22B279;}
	.st41{fill:#FF828E;}
	.st42{fill:#421C6A;}
	.st43{fill:#0E1423;}
	.st44{fill:#20AEEE;}
	.st45{fill:#25B575;}
	.st46{fill:#26B174;}
	.st47{fill:#FF8F22;}
	.st48{fill:#A257A5;}
	.st49{fill:#B4B4B4;}
	.st50{fill:#FFAA3B;}
	.st51{fill:#E76E1E;}
	.st52{fill:#FCAC42;}
	.st53{fill:#F8901B;}
	.st54{fill:#F66A1E;}
</style>
<g id="Shoulders">
	<g>
		<polygon class="st0" points="573.5,651.5 594.5,713.5 565.5,713.5 496.5,629.5 496.54,629.39 		"/>
		<polygon class="st1" points="496.5,629.5 565.5,713.5 456.28,664.08 		"/>
		<polygon class="st0" points="565.5,713.5 462.5,713.5 456.28,664.08 		"/>
		<polygon class="st2" points="496.54,629.39 496.5,629.5 456.28,664.08 461.5,619.49 461.55,619.34 		"/>
		<polygon class="st1" points="456.28,664.08 462.5,713.5 431.5,675.42 429.32,627.41 461.5,619.49 		"/>
		<polygon class="st0" points="431.5,675.42 462.5,713.5 379.5,713.5 431.5,675.5 		"/>
		<polygon class="st0" points="461.55,619.34 461.5,619.49 429.32,627.41 428.52,609.85 		"/>
		<polygon class="st1" points="431.5,675.42 431.5,675.5 379.5,713.5 350.35,664.08 428.15,609.74 428.52,609.85 429.32,627.41 
			399.05,634.86 417.31,657.99 		"/>
		<polygon class="st2" points="429.32,627.41 431.5,675.42 417.31,657.99 399.05,634.86 		"/>
		<polygon class="st0" points="256.84,659.22 191.5,603.5 191.45,603.36 220.07,593.46 394.79,600.16 428.15,609.74 350.35,664.08 
			379.5,713.5 320.49,713.5 		"/>
		<polygon class="st1" points="320.49,713.5 314.5,713.5 252.49,679.5 252.1,679.13 252.64,678.57 256.84,659.22 		"/>
		<polygon class="st0" points="314.5,713.5 142.5,713.5 196.37,686.28 234,698 252.1,679.13 252.49,679.5 		"/>
		<polygon class="st2" points="191.5,603.5 256.84,659.22 252.64,678.57 252.1,679.13 237.59,665.38 209.86,639.12 177.51,608.5 
			177.41,608.22 191.45,603.36 		"/>
		<polygon class="st1" points="237.59,665.38 252.1,679.13 234,698 196.37,686.28 237.49,665.49 		"/>
		<polygon class="st1" points="237.59,665.38 237.49,665.49 196.37,686.28 185.09,682.77 173,679 172.15,662.49 172.5,662.5 
			209.5,639.5 209.86,639.12 		"/>
		<polygon class="st1" points="171.1,642.54 169.49,611.5 169.32,611.02 177.41,608.22 177.51,608.5 209.86,639.12 209.5,639.5 
			172.5,662.5 172.15,662.49 		"/>
		<polygon class="st0" points="196.37,686.28 142.5,713.5 81.5,713.5 100.74,668.09 115.99,705 185.09,682.77 		"/>
		<polygon class="st1" points="173,679 185.09,682.77 115.99,705 100.74,668.09 104.23,659.83 172.15,662.49 		"/>
		<polygon class="st2" points="171.1,642.54 172.15,662.49 104.23,659.83 108.42,649.95 		"/>
		<polygon class="st0" points="169.49,611.5 171.1,642.54 108.42,649.95 117.29,629.02 169.32,611.02 		"/>
		<polygon class="st2" points="117.29,629.02 108.42,649.95 93.94,651.65 88.67,638.91 		"/>
		<polygon class="st2" points="108.42,649.95 104.23,659.83 97.21,659.55 93.94,651.65 		"/>
		<polygon class="st1" points="104.23,659.83 100.74,668.09 97.21,659.55 		"/>
		<polygon class="st0" points="100.74,668.09 81.5,713.5 20.5,713.5 44.77,657.51 97.21,659.55 		"/>
		<polygon class="st1" points="93.94,651.65 97.21,659.55 44.77,657.51 44.78,657.46 		"/>
		<polygon class="st1" points="93.94,651.65 44.78,657.46 46.5,653.5 88.67,638.91 		"/>
	</g>
	<g>
	</g>
</g>
<g id="Face">
	<g>
		<polygon class="st0" points="445.78,229.59 445.67,229.35 465.15,228.14 485.85,285.36 472.46,287.8 		"/>
		<polygon class="st0" points="485.85,285.36 478.19,353.65 474.71,313.67 472.46,287.8 		"/>
		<polygon class="st2" points="474.71,313.67 478.19,353.65 478.19,353.67 474.83,383.62 474.71,383.61 461.5,336.5 456.35,312.37 
			445.72,262.47 		"/>
		<polygon class="st0" points="474.83,383.62 471.24,415.64 471.13,415.6 467.59,414.42 465.88,392.59 464.06,369.18 463.09,356.98 
			461.5,336.5 474.71,383.61 		"/>
		<polygon class="st2" points="472.46,287.8 474.71,313.67 445.72,262.47 445.67,262.23 445.07,261.33 415.23,215.96 414.32,215.93 
			401.89,189.14 403.06,189.18 445.78,229.59 		"/>
		<polygon class="st3" points="471.13,415.6 471,416.01 470,440.97 467.59,414.42 		"/>
		<polygon class="st4" points="470,441 470.02,441.21 459.06,510.61 452.98,526.44 424.74,561.72 409.14,537.4 378.71,565.4 
			347.05,556.88 319.05,576.36 262.2,526.49 270.34,514.26 285.26,499.4 285.27,499.4 283.74,521.57 317.83,549.57 327.29,543.65 
			339.74,545.92 347.05,543.48 367.76,544.68 367.75,544.7 368.13,544.7 377.49,544.7 399.4,521.57 399.4,508.17 413.95,520.68 
			413.97,520.68 414.01,521.57 417.67,525.22 418.51,526.49 422.54,532.53 443.24,519.13 459.06,497.22 460.56,487.39 
			467.59,441.21 467.59,422.04 467.59,414.42 470,440.97 		"/>
		<polygon class="st3" points="467.59,422.04 467.59,441.21 460.56,487.39 460.55,487.39 457.02,491.47 456.63,491.13 
			466.48,429.03 		"/>
		<polygon class="st5" points="467.59,414.42 467.59,422.04 466.48,429.03 434.71,450.95 418.86,450.45 418.89,449.73 
			434.71,432.69 		"/>
		<polygon class="st6" points="465.88,392.59 467.59,414.42 434.71,432.69 410.11,424.99 410.36,424.16 		"/>
		<polygon class="st7" points="466.48,429.03 456.63,491.13 434.71,488.69 434.71,450.95 		"/>
		<polygon class="st8" points="464.06,369.18 465.88,392.59 410.36,424.16 410.11,424.99 401.3,422.24 401.84,420.51 420.3,388.37 
			434.71,381.55 434.84,380.79 440.24,381.71 440.25,381.51 440.8,381.55 461.5,369.37 		"/>
		<polygon class="st9" points="465.15,228.14 445.67,229.35 445.78,229.59 403.06,189.18 401.89,189.14 412.8,178.22 		"/>
		<polygon class="st10" points="463.09,356.98 464.06,369.18 461.5,369.37 440.8,381.55 440.25,381.51 440.61,376.85 440.8,376.68 
			437.64,370.35 439.58,369.37 460.28,357.2 		"/>
		<polygon class="st11" points="461.5,336.5 463.09,356.98 460.28,357.2 439.58,369.37 437.64,370.35 434.71,364.5 417.67,353.54 
			404.88,355.8 404.85,355.93 404.35,355.8 386.99,359.38 377.54,367.17 369.18,358.59 368.95,358.56 368.97,358.42 381.14,352.33 
			410.36,347.46 411.58,347.46 423.74,347.83 450.54,348.67 451.76,348.67 451.76,345.02 439.58,326.76 456.35,312.37 		"/>
		<polygon class="st12" points="460.56,487.39 459.06,497.22 443.24,519.13 422.54,532.53 418.51,526.49 438.37,513.04 
			457.02,491.47 460.55,487.39 		"/>
		<polygon class="st13" points="416.61,486.03 416.45,480.17 423.76,471.65 395.75,449.73 418.86,450.45 434.71,450.95 
			434.71,488.69 456.63,491.13 457.02,491.47 438.37,513.04 418.51,526.49 417.67,525.22 		"/>
		<polygon class="st14" points="445.72,262.47 456.35,312.37 439.58,326.76 411.58,291.45 411.63,226.9 412.8,226.92 445.45,262 		
			"/>
		<polygon class="st15" points="451.76,345.02 451.76,348.67 450.54,348.67 429.02,336.69 450.54,347.46 438.37,331.63 
			398.92,323.26 398.95,323.11 409.14,321.89 439.58,326.76 		"/>
		<polygon class="st16" points="438.37,331.63 450.54,347.46 429.02,336.69 428.63,336.5 399.71,335.56 398.97,335.54 
			398.95,335.54 390.88,335.28 367.75,340.15 375.05,329.19 388.45,323.11 398.19,323.11 398.92,323.26 		"/>
		<polygon class="st17" points="450.54,348.67 423.74,347.83 423.76,347.46 398.97,335.54 399.71,335.56 429.02,336.69 		"/>
		<polygon class="st18" points="445.45,262 412.8,226.92 411.63,226.9 414.32,215.93 415.23,215.96 445.07,261.33 		"/>
		<polygon class="st19" points="437.64,370.35 440.8,376.68 440.61,376.85 424.71,361 404.85,355.93 404.88,355.8 417.67,353.54 
			434.71,364.5 		"/>
		<polygon class="st20" points="377.54,367.17 386.99,359.38 404.35,355.8 404.85,355.93 424.71,361 440.61,376.85 440.25,381.51 
			440.24,381.71 434.84,380.79 426.98,379.48 426.79,379.04 428.28,378.36 416.96,366.51 412.86,366.21 397.54,365.05 
			396.84,365.53 380.01,376.81 379.92,376.68 368.97,374.24 		"/>
		<path class="st21" d="M411.58,291.45l28,35.31l-30.44-4.87l-10.19,1.22l-0.04,0.16l-0.73-0.16h-9.74l-8.52-4.87l-17.05,18.26
			v15.83l1.11,1.73l-1.11,0.71l-2.44,13.39l-2.44,25.57l7.31,7.31v-7.31l1.96-19.65l1.69,0.17l7.87,6.34l17.67,8.66l20.64,1.56
			l5.16-2.44l-5.07,2.92l-19.38,29.08l-0.1-0.07l-21.92-8.3c13.39,15.83,14.14,15.67,14.61,15.83v10.96l-2.97,1.98l-7.99-6.85
			l-10.96-2.44l-16.18,6.15l-10.96-4.87h-14.61l-9.39,7.24l-0.15,0.17l-7.16-6.26l1.22-9.74l7.31-4.87l1.22-9.74l-26.79,24.35
			l-18.26,1.22l26.79-32.87l22.94-17.72l6.28,18.93l3.65-12.18l7.31-29.22l-6.72-8.4l-6.67-11.08l-1.22-13.39l-13.39-9.74
			l-40.2,5.88l-9.72,1.42l30.44-34.09v-68.18l51.14,1.22l68.23,1.19L411.58,291.45z"/>
		<polygon class="st20" points="434.84,380.79 434.71,381.55 420.3,388.37 415.14,390.8 394.5,389.24 376.83,380.59 368.97,374.24 
			379.92,376.68 380.01,376.81 379.53,377.13 393.74,383.08 397.97,383.4 398.19,383.98 405.7,383.98 414.38,384.64 426.79,379.04 
			426.98,379.48 		"/>
		<polygon class="st22" points="434.71,432.69 418.89,449.73 418.86,450.45 395.75,449.73 395.75,420.51 401.3,422.24 
			410.11,424.99 		"/>
		<polygon class="st23" points="429.02,336.69 399.71,335.56 428.63,336.5 		"/>
		<polygon class="st24" points="416.96,366.51 428.28,378.36 426.79,379.04 414.38,384.64 405.7,383.98 410.36,383.98 
			415.23,376.68 412.8,366.94 412.86,366.21 		"/>
		<polygon class="st25" points="424.74,561.72 409.1,581.29 404.27,587.31 379.92,565.4 379.12,565.97 378.71,565.4 409.14,537.4 		
			"/>
		<polygon class="st23" points="423.76,347.46 423.74,347.83 411.58,347.46 410.36,347.46 398.19,343.8 376.27,346.24 
			363.99,354.06 362.88,352.33 367.75,340.15 390.88,335.28 398.95,335.54 398.97,335.54 		"/>
		<path class="st26" d="M385.48,440.76l2.97-1.98v-10.96c-0.47-0.16-1.22,0-14.61-15.83l21.92,8.3l0.1,0.07l-0.1,0.15v29.22
			l28,21.92l-7.31,8.52l-21.92-21.92l-9.73-2.62l-9.14-2.46l-12.36-3.32l-0.37-6.21h7.24h1.22h9.74L385.48,440.76z"/>
		<polygon class="st10" points="420.3,388.37 401.84,420.51 401.3,422.24 395.75,420.51 395.85,420.36 415.23,391.29 		"/>
		<polygon class="st12" points="416.61,486.03 417.67,525.22 414.01,521.57 413.97,520.68 411.58,481.39 411.62,481.34 		"/>
		<polygon class="st12" points="416.45,480.17 416.61,486.03 411.62,481.34 384.7,456.06 384.81,455.64 394.53,458.25 		"/>
		<polygon class="st27" points="412.8,366.94 415.23,376.68 410.36,383.98 405.7,383.98 401.84,383.69 397.97,383.4 394.53,374.24 
			396.97,365.72 396.84,365.53 397.54,365.05 412.86,366.21 		"/>
		<polygon class="st28" points="401.89,189.14 414.32,215.93 310.94,211.83 292.26,211.09 337.24,187.96 337.25,187.45 		"/>
		<polygon class="st18" points="414.32,215.93 411.63,226.9 343.4,225.7 292.26,224.48 310.94,211.83 		"/>
		<polygon class="st29" points="400.06,490.52 386.01,475.3 369.99,469.03 375.66,453.18 384.81,455.64 384.7,456.06 411.62,481.34 
			411.58,481.39 413.97,520.68 413.95,520.68 399.4,508.17 399.4,494.78 399.4,491.76 399.4,491.13 		"/>
		<polygon class="st9" points="412.8,178.22 401.89,189.14 337.25,187.45 310.52,186.74 295.58,187.17 338.53,150.21 		"/>
		<polygon class="st30" points="410.36,347.46 381.14,352.33 368.97,358.42 368.95,358.56 367.75,369.37 367.27,374.07 
			365.31,393.72 365.31,401.03 358.01,393.72 360.44,368.16 362.88,354.76 363.99,354.06 376.27,346.24 398.19,343.8 		"/>
		<polygon class="st31" points="320.71,607.68 321.48,608.01 356.79,611.67 404.27,587.31 409.1,581.29 402.51,614.34 
			319.05,650.63 318.58,651.25 217.99,576.36 223.47,536.96 238.69,564.18 258.17,581.23 294.97,596.8 		"/>
		<polygon class="st20" points="405.7,383.98 398.19,383.98 397.97,383.4 401.84,383.69 		"/>
		<polygon class="st32" points="404.27,587.31 356.79,611.67 321.48,608.01 320.71,607.68 379.12,565.97 379.92,565.4 		"/>
		<polygon class="st33" points="402.51,614.34 398.19,636.02 349.48,664.02 327.03,657.53 318.58,651.25 319.05,650.63 		"/>
		<path class="st34" d="M400.06,490.52l-0.66,0.61l-4.87,1.22l-2.44-3.65l-19.27-5.36l-2.64-0.73l-30.44-1.22l-30.29-1.68
			l-13.54-0.75l-8.52,7.31l-0.49,0.69l-0.12-0.09l-0.65-0.05l0.04-0.56l1.22-10.96l13.39-7.31l21.92-2.92l14.61-1.95l9.74,2.44
			l1.22,3.65c0-0.52,0.45-2.18,0.96-3.9l2.54-0.28l6.23-0.69l11.98,4.69l16.02,6.27L400.06,490.52z"/>
		<polygon class="st35" points="399.4,508.17 399.4,521.57 377.49,544.7 368.13,544.7 367.76,544.68 373.84,528.87 372.62,516.7 
			399.4,494.78 		"/>
		<polygon class="st25" points="399.4,491.76 399.4,494.78 372.62,516.7 347.05,525.22 322.7,521.57 304.44,509.39 286.17,491.13 
			285.84,491.1 286.14,486.82 286.78,486.87 286.9,486.95 307.48,501.48 337.92,506.35 368.36,506.35 		"/>
		<polygon class="st34" points="399.4,491.13 399.4,491.76 368.36,506.35 337.92,506.35 307.48,501.48 286.9,486.95 287.39,486.26 
			309.31,498.43 318.44,499.96 338.53,503.3 367.75,503.3 373.84,500.81 394.53,492.35 		"/>
		<polygon class="st24" points="394.53,374.24 397.97,383.4 393.74,383.08 379.53,377.13 380.01,376.81 396.84,365.53 
			396.97,365.72 		"/>
		<polygon class="st36" points="392.1,488.69 394.53,492.35 373.84,500.81 376,490.99 372.83,483.34 		"/>
		<polygon class="st37" points="388.45,323.11 387.23,323.11 375.05,329.19 367.75,340.15 362.88,352.33 362.88,336.5 
			379.92,318.24 		"/>
		<path class="st38" d="M377.49,433.9l7.99,6.85l-4.33,2.89h-9.74h-1.22l3.65-2.44l-6.09-3.65l-4.87,2.44v0.61v2.07v0.97
			l-14.61,6.09l-10.96-1.22l-13.88,0.73l-0.73,0.04l-4.87-6.85l-2.58-2.26l0.15-0.17l9.39-7.24h14.61l10.96,4.87l16.18-6.15
			L377.49,433.9z M322.7,441.21l20.7-1.22l-7.31-4.87l-12.18,2.44L322.7,441.21z"/>
		<polygon class="st39" points="378.71,565.4 379.12,565.97 320.71,607.68 294.97,596.8 319.05,576.36 347.05,556.88 		"/>
		<polygon class="st40" points="377.54,367.17 368.97,374.24 367.27,374.07 367.75,369.37 368.95,358.56 369.18,358.59 		"/>
		<polygon class="st41" points="372.83,483.34 376,490.99 373.84,500.81 		"/>
		<path class="st17" d="M363.3,449.85l12.36,3.32l-5.67,15.85l-11.98-4.69l-6.23,0.69l-2.54,0.28c0.68-2.26,1.47-4.63,1.47-4.63
			l-1.73-7.49l13.9-3.47L363.3,449.85z"/>
		<polygon class="st41" points="372.83,483.34 373.84,500.81 367.75,503.3 338.53,503.3 318.44,499.96 309.45,479.71 339.74,481.39 
			370.18,482.61 		"/>
		<polygon class="st42" points="372.62,516.7 373.84,528.87 367.76,544.68 347.05,543.48 339.74,545.92 327.29,543.65 
			327.57,543.48 320.26,534.96 322.7,521.57 347.05,525.22 		"/>
		<polygon class="st43" points="373.84,441.21 370.18,443.64 362.94,443.64 362.88,442.67 362.88,440.6 362.88,439.99 
			367.75,437.56 		"/>
		<polygon class="st44" points="368.13,544.7 367.75,544.7 367.76,544.68 		"/>
		<polygon class="st45" points="363.3,449.85 362.88,449.73 348.97,453.2 348.88,452.78 348.62,453.3 348.27,453.38 337.31,448.51 
			348.27,449.73 362.88,443.64 362.94,443.64 		"/>
		<path class="st29" d="M348.97,453.2l1.73,7.49c0,0-0.79,2.36-1.47,4.63l-2.18,0.24l-1.83-5.48l3.4-6.78L348.97,453.2z"/>
		<path class="st34" d="M347.05,465.56l2.18-0.24c-0.51,1.72-0.96,3.37-0.96,3.9L347.05,465.56z"/>
		<polygon class="st17" points="348.97,453.2 348.62,453.3 348.88,452.78 		"/>
		<polygon class="st17" points="348.62,453.3 345.22,460.08 347.05,465.56 337.31,463.12 322.7,465.07 314.18,449.73 322.7,449.28 
			323.43,449.24 337.31,448.51 348.27,453.38 		"/>
		<polygon class="st43" points="343.4,439.99 322.7,441.21 323.92,437.56 336.09,435.12 		"/>
		<polygon class="st30" points="333.02,353.67 339.74,362.07 332.44,391.29 328.79,403.46 322.5,384.53 331.1,377.9 328.3,375.03 
			333.66,366.94 325.13,354.76 299.57,347.46 299.57,346.24 302.66,344.18 306.87,341.37 330,349.89 330.98,351.11 		"/>
		<polygon class="st9" points="338.53,150.21 295.58,187.17 267.91,187.96 227.73,183.09 284.95,151.43 		"/>
		<polygon class="st28" points="337.25,187.45 337.24,187.96 292.26,211.09 258.17,224.48 245.32,221.51 267.91,187.96 
			295.58,187.17 310.52,186.74 		"/>
		<polygon class="st46" points="325.13,354.76 333.66,366.94 328.3,375.03 325.13,371.81 310.52,355.98 293.48,351.11 
			282.51,353.05 300.78,341.37 302.66,344.18 299.57,346.24 299.57,347.46 		"/>
		<polygon class="st23" points="326.35,342.59 333.02,353.67 330.98,351.11 330,349.89 306.87,341.37 302.66,344.18 300.78,341.37 
			300.49,340.86 310.52,335.28 311.74,335.28 		"/>
		<polygon class="st19" points="328.3,375.03 331.1,377.9 322.5,384.53 322.35,384.04 		"/>
		<polygon class="st19" points="328.3,375.03 322.35,384.04 322.5,384.53 299.57,402.25 283.74,401.74 299.57,385.2 300.78,385.2 
			319.05,377.9 325.13,371.81 		"/>
		<polygon class="st35" points="327.29,543.65 317.83,549.57 283.74,521.57 285.27,499.4 285.84,491.1 286.17,491.13 304.44,509.39 
			322.7,521.57 320.26,534.96 327.57,543.48 		"/>
		<polygon class="st47" points="327.03,657.53 294.69,648.19 210.68,595.84 217.99,576.36 318.58,651.25 		"/>
		<polygon class="st16" points="325.13,329.19 326.35,342.59 311.74,335.28 310.52,335.28 266.69,335.28 265.83,335.83 
			265.47,335.28 271.56,325.54 271.54,325.33 311.74,319.45 		"/>
		<polygon class="st20" points="310.52,355.98 325.13,371.81 316.61,374.24 299.57,360.85 296,360.85 281.3,360.85 280.08,360.85 
			267.91,371.81 269.36,372.6 269.13,373.03 261.77,373.7 255.73,374.24 255.73,369.37 256.44,368.78 256.95,369.37 282.51,353.05 
			293.48,351.11 		"/>
		<polygon class="st20" points="325.13,371.81 319.05,377.9 300.78,385.2 299.57,385.2 280.08,385.2 261.82,374.24 261.77,373.7 
			269.13,373.03 269.36,372.6 281.3,379.11 283.47,379.11 283.96,379.8 295.91,379.11 302,379.11 316.61,374.24 		"/>
		<polygon class="st26" points="317.83,442.43 322.7,449.28 314.18,449.73 294.97,450.74 286.17,450.95 267.91,467.99 
			266.69,509.39 266.95,509.57 251.95,530.99 222.12,491.23 222.25,491.13 252.08,491.13 252.08,469.21 272.78,435.12 291.04,433.9 
			288.61,444.86 303.22,438.77 		"/>
		<polygon class="st29" points="270.9,503.94 272.78,469.21 291.04,450.95 294.97,450.74 314.18,449.73 322.7,465.07 300.78,467.99 
			287.39,475.3 286.17,486.26 286.14,486.82 285.84,491.1 285.27,499.4 285.26,499.4 270.34,514.26 		"/>
		<polygon class="st25" points="206.74,472.8 206.28,459.62 205.81,446.08 207.03,422.95 208.41,422.95 210.68,422.95 
			214.87,481.58 215.55,491.13 244.78,532.53 253.1,532.53 258.17,532.53 262.2,526.49 319.05,576.36 294.97,596.8 210.68,511.83 
			209.76,512.34 209.47,511.83 207.03,481.39 206.91,477.7 		"/>
		<polygon class="st41" points="309.45,479.71 318.44,499.96 311,490 		"/>
		<polygon class="st36" points="311,490 318.44,499.96 309.31,498.43 287.39,486.26 295.91,478.95 309.45,479.71 		"/>
		<polygon class="st45" points="317.83,409.55 316.61,419.29 309.31,424.16 308.09,433.9 315.25,440.16 317.83,442.43 
			303.22,438.77 288.61,444.86 291.04,433.9 		"/>
		<polygon class="st24" points="316.61,374.24 302,379.11 295.91,379.11 299.57,368.16 296,360.85 299.57,360.85 		"/>
		<polygon class="st1" points="310.94,211.83 292.26,224.48 253.3,241.53 237.38,239.46 237.38,239.45 225.29,237.88 226.22,217.17 
			226.51,217.18 245.32,221.51 258.17,224.48 292.26,211.09 		"/>
		<polygon class="st17" points="310.52,335.28 300.49,340.86 299.57,341.37 272.78,342.59 250.86,354.76 245.99,357.2 
			258.17,341.37 257.89,340.94 265.83,335.83 266.69,335.28 		"/>
		<polygon class="st11" points="239.41,388.23 210.68,422.95 218.63,373.63 218.63,373.62 228.98,354.56 245.99,357.2 
			250.86,354.76 272.78,342.59 299.57,341.37 300.49,340.86 300.78,341.37 282.51,353.05 272.78,354.76 256.44,368.78 
			255.73,369.37 255.73,374.24 240.03,387.71 239.9,387.64 		"/>
		<polygon class="st27" points="296,360.85 299.57,368.16 295.91,379.11 283.47,379.11 277.87,371.27 281.3,360.85 		"/>
		<polygon class="st48" points="299.57,385.2 283.74,401.74 261.82,401.03 240.03,387.71 255.73,374.24 261.77,373.7 261.82,374.24 
			280.08,385.2 		"/>
		<polygon class="st10" points="299.57,402.25 272.78,435.12 236.25,441.21 210.68,422.95 239.41,388.23 240.03,387.71 
			261.82,401.03 283.74,401.74 		"/>
		<polygon class="st20" points="295.91,379.11 283.96,379.8 283.47,379.11 		"/>
		<polygon class="st32" points="210.68,511.83 294.97,596.8 258.17,581.23 238.69,564.18 223.47,536.96 215.55,522.78 
			209.76,512.34 		"/>
		<polygon class="st12" points="294.97,450.74 291.04,450.95 272.78,469.21 270.9,503.94 266.95,509.57 266.69,509.39 
			267.91,467.99 286.17,450.95 		"/>
		<polygon class="st13" points="292.26,224.48 292.26,292.67 261.82,326.76 249.65,346.24 257.89,340.94 258.17,341.37 
			245.99,357.2 228.98,354.56 253.3,309.71 239.9,264.24 253.3,241.53 		"/>
		<polygon class="st24" points="277.87,371.27 283.47,379.11 281.3,379.11 269.36,372.6 267.91,371.81 280.08,360.85 281.3,360.85 
					"/>
		<polygon class="st24" points="282.51,353.05 256.95,369.37 256.44,368.78 272.78,354.76 		"/>
		<polygon class="st13" points="272.78,435.12 252.08,469.21 252.08,491.13 222.25,491.13 222.12,491.23 214.87,481.58 
			210.68,422.95 236.25,441.21 		"/>
		<polygon class="st37" points="271.54,325.33 271.56,325.54 265.47,335.28 265.83,335.83 257.89,340.94 249.65,346.24 
			261.82,326.76 		"/>
		<polygon class="st12" points="266.95,509.57 270.9,503.94 270.34,514.26 262.2,526.49 258.17,532.53 253.1,532.53 251.95,530.99 
					"/>
		<polygon class="st9" points="267.91,187.96 245.32,221.51 226.51,217.18 226.22,217.17 227.73,183.09 		"/>
		<polygon class="st0" points="253.3,241.53 239.9,264.24 226.99,286.14 225.29,289.01 225.62,290.13 225.29,290.23 210.68,330.41 
			210.6,331.28 207.03,371.81 207.71,418.85 198.67,392.85 198.64,392.49 195.09,335.34 196.07,335.28 210.68,284.14 237.35,239.7 
			237.38,239.46 		"/>
		<polygon class="st7" points="239.9,264.24 253.3,309.71 228.98,354.56 218.63,373.62 222.86,347.46 235.03,310.93 227.73,286.58 
			226.99,286.14 		"/>
		<polygon class="st25" points="251.95,530.99 253.1,532.53 244.78,532.53 215.55,491.13 214.87,481.58 222.12,491.23 		"/>
		<polygon class="st49" points="240.03,387.71 239.41,388.23 239.9,387.64 		"/>
		<polygon class="st2" points="237.38,239.45 237.38,239.46 237.35,239.7 210.68,284.14 196.07,335.28 195.09,335.34 193.64,312.15 
			197.29,264.66 225.29,237.88 		"/>
		<polygon class="st0" points="227.73,286.58 235.03,310.93 222.86,347.46 218.63,373.62 218.63,373.63 210.68,422.95 
			208.41,422.95 208.41,420.85 220.42,346.24 231.38,309.71 225.62,290.13 225.29,289.01 226.99,286.14 		"/>
		<polygon class="st18" points="225.62,290.13 231.38,309.71 220.42,346.24 210.68,330.41 225.29,290.23 		"/>
		<polygon class="st18" points="210.68,330.41 220.42,346.24 208.41,420.85 207.71,418.88 207.71,418.85 207.03,371.81 
			210.6,331.28 		"/>
		<path class="st31" d="M208.41,420.85v2.09h-1.38l-7.31-15.83l-6.09-8.52l-4.87,4.87c0,0,0,0-2.44,13.39l-3.84,2.02l1.88-20.63
			l5.61-6.96l8.52,1.22l0.13-0.01l0.02,0.35l9.05,26.01v0.02L208.41,420.85z"/>
		<path class="st50" d="M199.73,407.12l7.31,15.83l-1.22,23.13l0.46,13.54l-8.99,1.07l-4.87-6.09v6.09h-2.44l-1.22-2.44l-6.83-33.21
			l0.56-6.16l3.84-2.02l2.44,4.87v-6.09l2.44-9.74l3.65-1.22l3.65,7.31L199.73,407.12z M197.29,439.99l4.87-8.52l-3.87-0.67
			l-2.44-10.96l-3.43,3.1l-2.44,9.74l3.65,18.26l8.52-3.65L197.29,439.99z"/>
		<polygon class="st51" points="206.74,472.8 206.91,477.7 197.29,475.3 194.86,470.42 		"/>
		<polygon class="st52" points="206.28,459.62 206.74,472.8 194.86,470.42 191.31,463.34 206.28,463.34 		"/>
		<polygon class="st51" points="206.28,459.62 206.28,463.34 191.31,463.34 189.99,460.69 192.42,460.69 192.42,454.6 
			197.29,460.69 		"/>
		<polygon class="st53" points="202.16,431.47 197.29,439.99 202.16,447.3 193.64,450.95 189.99,432.69 192.42,422.95 
			195.85,419.84 198.29,430.8 		"/>
		<path class="st54" d="M193.64,398.59l6.09,8.52l-1.22,4.87l-3.65-7.31l-3.65,1.22l-2.44,9.74v6.09l-2.44-4.87
			c2.44-13.39,2.44-13.39,2.44-13.39L193.64,398.59z"/>
	</g>
	<g>
	</g>
</g>
</svg>
