<?xml version="1.0" encoding="utf-8"?>
<!-- Generator: Adobe Illustrator 24.0.0, SVG Export Plug-In . SVG Version: 6.00 Build 0)  -->
<svg version="1.1" xmlns="http://www.w3.org/2000/svg" xmlns:xlink="http://www.w3.org/1999/xlink" x="0px" y="0px"
	 viewBox="-170 0 900 768" style="enable-background:new -170 0 900 768;" xml:space="preserve">
<style type="text/css">
	.st0{fill:#623F86;}
	.st1{fill:#A0CDE3;}
	.st2{fill:#6C2745;}
	.st3{fill:#B1BB44;}
	.st4{fill:#E26183;}
	.st5{fill:#CD8A67;}
	.st6{fill:#D39F9F;}
	.st7{fill:#31252C;}
	.st8{fill:#FFFFFF;}
	.st9{fill:#FCD9D9;}
</style>
<polyline class="st0" points="464.51,189.56 571.53,232.37 554.41,433.57 588.66,472.1 592.94,727.52 374.61,714.68 371.76,496.36 
	"/>
<g id="XMLID_3_">
	<g>
		<path class="st1" d="M523.02,713.25l4.28,34.25l-125.57-25.68l-2.86-51.37C523.02,713.25,523.02,713.25,523.02,713.25z"/>
	</g>
	<g>
	</g>
</g>
<g id="XMLID_1_">
	<g>
		<polygon class="st2" points="505.07,170.42 507.07,173.63 501.95,217.1 468.32,249.77 468.32,216.7 446.78,169.32 437.47,159.89 
			418.96,141.15 461.28,155.54 505.06,170.42 		"/>
		<polygon class="st0" points="503.25,167.51 505.06,170.42 461.28,155.54 448.81,113.93 388.88,119.63 384.6,71.12 383.83,71.6 
			386.02,53.99 413.14,85.39 422.73,71.72 464.29,105.19 		"/>
		<polygon class="st3" points="494.4,386.25 504.63,420.76 490.19,479.23 478.78,500.63 467.36,509.19 455.9,503.27 467.83,469.61 
			481.23,462.15 485.54,444.92 473.78,434.79 473.78,383.39 483.14,377.77 		"/>
		<polygon class="st2" points="473.78,383.39 473.37,383.64 467.59,367.74 468.32,315.74 468.32,307.12 468.32,259.76 
			468.32,249.77 501.95,217.1 498.45,246.83 489.84,264.06 483.14,377.77 		"/>
		<polygon class="st4" points="485.54,444.92 481.23,462.15 467.83,469.61 473.78,452.83 473.78,434.79 		"/>
		<polygon class="st4" points="466.15,470.55 466.5,471.18 455.39,483.68 442.47,513.82 420.94,543.95 411.64,555.58 388.88,507.77 
			440.25,466.38 443.1,416.44 473.37,426.43 473.37,434.44 473.78,434.79 473.78,452.83 467.83,469.61 		"/>
		<polygon class="st5" points="473.78,383.39 473.78,434.79 473.37,434.44 473.37,426.43 473.37,383.64 		"/>
		<polygon class="st5" points="411.89,406.45 412.58,388.46 430.26,402.17 445.96,387.9 439.91,356.51 442.09,355.1 448.81,350.8 
			446.21,342.65 468.32,307.12 468.32,315.74 467.59,367.74 473.37,383.64 473.37,426.43 443.1,416.44 440.25,466.38 388.88,507.77 
			411.64,555.58 403.72,565.49 382.19,578.4 373.58,535.35 367.25,535.35 366.4,519.55 377.88,522.42 373.58,513.82 377.88,496.59 
			364.96,475.06 336.71,460.93 345.94,446.52 356.06,430.71 370.33,459.25 410.28,449.26 		"/>
		<polygon class="st6" points="468.32,259.76 468.32,307.12 446.21,342.65 442.89,332.25 430.29,292.78 433.86,294.21 
			438.16,307.12 442.47,302.81 438.16,285.59 429.43,280.35 428.85,280 468.32,249.77 		"/>
		<polygon class="st6" points="468.32,216.7 468.32,249.77 428.85,280 420.27,248.06 437.41,159.95 437.47,159.89 446.78,169.32 		
			"/>
		<polygon class="st2" points="143.11,613.65 137.36,609.05 137.4,608.11 153.4,573.46 153.97,574.11 175.49,535.35 197.02,522.42 
			197.28,523.15 214.25,569.8 224.16,575.3 253,591.33 253.32,591.96 289.66,616.19 308.97,629.06 308.97,591.96 308.98,591.33 
			334.82,578.4 340.5,567.04 368.9,566.27 367.25,535.35 373.58,535.35 382.19,578.4 403.72,565.49 411.64,555.58 420.94,543.95 
			442.47,513.82 455.39,483.68 466.5,471.18 466.15,470.55 467.83,469.61 455.9,503.27 433.88,565.4 376.04,614.79 373.18,583.4 
			326.09,604.8 333.23,644.75 301.69,678.29 259.2,680.53 263.31,650.46 184.82,573.41 166.27,621.92 180.81,643.8 		"/>
		<polygon class="st0" points="383.83,71.6 384.6,71.12 388.88,119.63 448.81,113.93 461.28,155.54 418.96,141.15 418.84,141.04 
			412.91,139.1 386.82,130.24 386.79,130.58 373.58,126.27 363.55,126.27 357.93,109.5 335.32,102.42 		"/>
		<polygon class="st0" points="446.21,342.65 448.81,350.8 442.09,355.1 440.25,352.23 		"/>
		<path class="st0" d="M442.89,332.25l3.32,10.4l-5.96,9.57l-28.54,14.27l-12.3-0.74l0.17-2.83l20.15-12.06
			c0.67-0.41,0.81-1.31,0.31-1.91l-7.62-6.01l0.11-0.54l9.87,1.97l4.28-4.28v-1.43l-3.34-4.82l3.34-2.31L442.89,332.25z"/>
		<polygon class="st6" points="439.91,356.51 445.96,387.9 430.26,402.17 412.58,388.46 413.14,373.63 		"/>
		<polygon class="st0" points="430.29,292.78 442.89,332.25 426.69,331.54 423.35,333.85 413.85,320.12 405.7,318.38 391.02,295.86 
			367.23,285.59 386.49,285.59 412.34,285.59 		"/>
		<polygon class="st2" points="438.16,285.59 442.47,302.81 438.16,307.12 433.86,294.21 430.29,292.78 427.41,283.73 
			429.43,280.35 		"/>
		<polygon class="st4" points="440.25,352.23 442.09,355.1 439.91,356.51 413.14,373.63 412.58,388.46 411.89,406.45 384.6,416.44 
			351.15,378.81 364.62,363.64 399.41,365.76 411.71,366.5 		"/>
		<polygon class="st6" points="384.75,151.18 386.79,130.58 412.91,139.1 418.96,141.15 437.47,159.89 437.41,159.95 420.27,248.06 
			428.85,280 416.63,272.68 382.19,259.76 374.04,259.76 		"/>
		<polygon class="st7" points="391.13,628.43 371.5,641.52 317.6,677.45 301.69,678.29 333.23,644.75 326.09,604.8 373.18,583.4 
			376.04,614.79 433.88,565.4 433.86,565.49 401.01,616.6 395.11,625.78 		"/>
		<polygon class="st7" points="326.45,277.48 326.21,276.98 347.74,259.76 374.04,259.76 382.19,259.76 416.63,272.68 428.85,280 
			429.43,280.35 427.41,283.73 430.29,292.78 412.34,285.59 386.49,285.59 367.23,285.59 364.96,285.59 330.52,285.59 		"/>
		<polygon class="st7" points="405.7,318.38 413.85,320.12 423.35,333.85 426.69,338.67 426.69,340.1 422.41,344.38 412.54,342.41 
			408.14,341.53 393.23,332.58 393.16,332.25 386.74,328.68 386.54,328.68 386.49,328.65 369.59,328.65 369.27,328.65 
			369.21,328.68 368.19,328.68 367.1,329.77 355.34,335.82 338.46,340.04 338.26,339.98 341.07,331.54 353.92,317.27 354.6,317.07 
			373.89,311.56 		"/>
		<polygon class="st0" points="422.73,71.72 413.14,85.39 386.02,53.99 383.83,71.6 335.32,102.42 319.67,97.52 324.75,109.13 
			297.77,126.27 232.28,126.27 242.1,112.81 347.5,81.11 343.22,66.84 343.53,63.3 367.47,65.41 351.78,46.86 298.98,55.42 
			291.84,44.01 323.24,44.01 316.1,32.59 219.6,22.66 270.23,10 330.52,27.22 399.41,53.07 		"/>
		<path class="st2" d="M420.04,348.96c0.5,0.6,0.36,1.5-0.31,1.91l-20.15,12.06l-28.15-8.45h3.84h24.14l10.16-8.68l-1.54-4.24
			l-14.77-8.86l-0.03-0.13l14.91,8.95l4.4,0.88l-0.11,0.54L420.04,348.96z"/>
		<polygon class="st3" points="411.89,406.45 410.28,449.26 370.33,459.25 356.06,430.71 355.4,429.21 384.6,416.44 		"/>
		<polygon class="st1" points="408.03,341.57 409.57,345.81 399.41,354.48 375.26,354.48 390.8,350.19 395.11,341.57 393.26,332.71 
					"/>
		<polygon class="st3" points="391.02,295.86 405.7,318.38 373.89,311.56 354.6,317.07 351.06,295.86 329.66,315.84 310.07,285.28 
			326.45,277.48 330.52,285.59 364.96,285.59 367.23,285.59 		"/>
		<polygon class="st4" points="391.13,628.43 395.11,625.78 401.01,616.6 401.01,721.1 384.84,734.95 371.5,641.52 		"/>
		<polygon class="st3" points="399.58,362.93 399.41,365.76 364.62,363.64 351.15,378.81 350.35,377.91 340.72,375.06 
			369.46,354.48 371.43,354.48 		"/>
		<polygon class="st7" points="393.26,332.71 395.11,341.57 390.8,350.19 375.26,354.48 364.96,350.19 364.96,341.57 364.62,332.25 
			366.76,330.11 369.61,328.68 373.89,328.68 382.09,329.31 377.78,337.92 386.74,337.24 386.74,328.8 		"/>
		<polygon class="st1" points="393.23,332.58 393.26,332.71 386.74,328.8 386.74,328.68 		"/>
		<polygon class="st1" points="393.16,332.25 393.23,332.58 386.74,328.68 		"/>
		<polygon class="st3" points="363.55,126.27 373.58,126.27 386.79,130.58 384.75,151.18 340.69,126.27 		"/>
		<polygon class="st1" points="386.74,328.8 386.74,337.24 377.78,337.92 382.09,329.31 373.89,328.68 386.54,328.68 		"/>
		<polygon class="st1" points="386.74,328.68 386.74,328.8 386.54,328.68 		"/>
		<polygon class="st6" points="386.49,328.65 386.54,328.68 373.89,328.68 369.61,328.68 369.59,328.65 		"/>
		<polygon class="st3" points="259.2,680.53 301.69,678.29 317.6,677.45 371.5,641.52 384.84,734.95 361.05,755.34 321.1,761.05 
			304.06,736.92 309.68,698.27 209.79,702.55 140.93,644.06 143.11,613.65 180.81,643.8 201.33,660.22 235.78,681.76 		"/>
		<polygon class="st3" points="347.74,259.48 325.46,259.48 324.66,246.63 343.22,212.39 307.54,208.11 296.13,242.35 
			291.84,208.11 245.64,210.07 236.19,173.86 317.6,126.27 340.69,126.27 384.75,151.18 374.04,259.76 347.74,259.76 		"/>
		<polygon class="st5" points="351.15,378.81 384.6,416.44 355.4,429.21 339.13,436.33 339.13,423.39 330.56,401.96 		"/>
		<polygon class="st2" points="336.71,460.93 364.96,475.06 377.88,496.59 373.58,513.82 377.88,522.42 366.4,519.55 364.62,486.36 
			338.93,474.95 331.29,487.33 300.49,481.74 296.13,473.52 303.9,451.49 305.27,451.37 330.52,457.84 		"/>
		<polygon class="st1" points="369.46,354.48 369.27,354.48 352.05,350.19 349.64,342.95 355.34,335.82 366.76,330.11 
			364.62,332.25 364.96,341.57 364.96,350.19 375.26,354.48 371.43,354.48 		"/>
		<polygon class="st7" points="369.61,328.68 366.76,330.11 367.1,329.77 369.21,328.68 		"/>
		<polygon class="st6" points="369.61,328.68 369.21,328.68 369.27,328.65 369.59,328.65 		"/>
		<polygon class="st0" points="369.46,354.48 340.72,375.06 311.82,366.5 311.54,366.65 311.21,366.06 311.17,365.51 316.82,334.39 
			338.26,339.98 338.22,340.1 338.46,340.04 349.64,342.95 352.05,350.19 369.27,354.48 		"/>
		<polygon class="st1" points="369.21,328.68 367.1,329.77 368.19,328.68 		"/>
		<polygon class="st5" points="367.25,535.35 368.9,566.27 340.5,567.04 356.36,535.35 		"/>
		<polygon class="st3" points="351.78,46.86 367.47,65.41 343.53,63.3 318.96,61.13 320.38,78.25 343.22,66.84 347.5,81.11 
			242.1,112.81 270.44,73.97 213.36,56.85 195.91,87.66 193.81,47.86 218.83,22.84 219.6,22.66 316.1,32.59 323.24,44.01 
			291.84,44.01 298.98,55.42 		"/>
		<polygon class="st1" points="366.4,519.55 367.25,535.35 356.36,535.35 340.5,567.04 316.1,567.7 311.82,520.61 311.69,519.82 
			321.9,518.13 343.43,509.51 346.43,506.51 358.73,508.44 360.65,518.13 		"/>
		<polygon class="st6" points="367.1,329.77 366.76,330.11 355.34,335.82 		"/>
		<polygon class="st7" points="364.62,486.36 366.4,519.55 360.65,518.13 358.73,508.44 358.17,505.65 356.36,496.59 334.82,487.97 
			331.29,487.33 338.93,474.95 		"/>
		<polygon class="st8" points="357.93,109.5 363.55,126.27 340.69,126.27 329.47,119.93 324.75,109.13 335.32,102.42 		"/>
		<polygon class="st2" points="358.17,505.65 358.73,508.44 346.43,506.51 348.79,504.14 		"/>
		<polygon class="st1" points="356.36,496.59 358.17,505.65 348.79,504.14 349.89,503.04 326.42,495.22 331.29,487.33 
			334.82,487.97 		"/>
		<polygon class="st5" points="355.4,429.21 356.06,430.71 345.94,446.52 343.43,444.92 339.13,440.61 339.13,436.33 		"/>
		<polygon class="st7" points="355.34,335.82 349.64,342.95 338.46,340.04 		"/>
		<polygon class="st0" points="351.06,295.86 354.6,317.07 353.92,317.27 341.07,331.54 338.26,339.98 316.82,334.39 311.17,365.51 
			310.2,354.88 308.98,341.57 311.21,307.44 310.07,285.28 329.66,315.84 		"/>
		<polygon class="st0" points="350.35,377.91 351.15,378.81 330.56,401.96 330.52,401.86 311.54,366.65 311.82,366.5 340.72,375.06 
					"/>
		<polygon class="st0" points="349.89,503.04 348.79,504.14 323.45,500.05 326.42,495.22 		"/>
		<polygon class="st2" points="348.79,504.14 346.43,506.51 321.84,502.66 323.45,500.05 		"/>
		<polygon class="st3" points="325.46,259.48 347.74,259.48 347.74,259.76 326.21,276.98 326.45,277.48 310.07,285.28 
			309.74,279.18 307.54,236.64 311.82,236.64 311.82,259.48 		"/>
		<polygon class="st0" points="346.43,506.51 343.43,509.51 321.9,518.13 311.69,519.82 311.19,519.91 321.84,502.66 		"/>
		<polygon class="st5" points="345.94,446.52 336.71,460.93 330.52,457.84 305.27,451.37 303.9,451.49 304.53,449.72 311.19,447.82 
			313.29,449.22 343.43,444.92 		"/>
		<polygon class="st0" points="343.53,63.3 343.22,66.84 320.38,78.25 318.96,61.13 		"/>
		<path class="st2" d="M334.57,436.2l0.26,0.1l4.31,4.31l4.3,4.31l-30.14,4.3l-2.1-1.4l-10.82-7.21
			c12.91-12.91,12.91-12.91,12.91-12.91L334.57,436.2z"/>
		<polygon class="st8" points="343.22,212.39 324.66,246.63 325.46,259.48 311.82,259.48 311.82,236.64 307.54,236.64 
			309.74,279.18 291.84,283.73 277.58,219.52 266.16,259.48 249.04,259.48 248.69,259.76 212.16,259.76 253.32,239.5 245.64,210.07 
			291.84,208.11 296.13,242.35 307.54,208.11 		"/>
		<polygon class="st3" points="329.47,119.93 340.69,126.27 317.6,126.27 328.95,119.63 		"/>
		<path class="st0" d="M340.5,567.04l-5.68,11.36l-25.84,12.93l-4.31-17.22v-17.22v-25.84h-34.45l-10.37,10.37l-27.94-10.82
			L217.64,552l6.52,23.3l-9.92-5.51l-16.97-46.65l1.1-0.4l1.81-19.09l1.07,0.64c0.68,2.04,0.68,2.04,0.68,2.04l2.18-0.33l5.81,3.5
			l2.23,0.64h0.01l19.29,5.51l8.62,2.47l25.83,4.3l12.93-4.3l17.22,4.3l15.13-2.51l0.5-0.09l0.13,0.78l4.28,47.09L340.5,567.04z"/>
		<polygon class="st0" points="330.56,401.96 339.13,423.39 339.13,436.33 339.13,440.61 334.82,436.3 334.57,436.2 326.09,415.01 
			308.97,406.45 299.92,403.06 293.44,357.72 308.97,355 310.2,354.88 311.17,365.51 311.21,366.06 311.54,366.65 330.52,401.86 		
			"/>
		<polygon class="st3" points="338.46,340.04 338.22,340.1 338.26,339.98 		"/>
		<polygon class="st8" points="335.32,102.42 324.75,109.13 319.67,97.52 		"/>
		<path class="st4" d="M304.53,449.72l-8.4,2.4l-24.26-1.43l-9.22-10.07h11.89l-4.89-4.89l33.62-13.57l5.71-15.7l17.12,8.56
			l8.48,21.19l-21.28-8.5c0,0,0,0-12.91,12.91l10.82,7.21L304.53,449.72z"/>
		<polygon class="st4" points="331.29,487.33 326.42,495.22 324.05,494.44 307.24,494.44 300.49,481.74 		"/>
		<polygon class="st0" points="324.75,109.13 329.47,119.93 328.95,119.63 317.6,126.27 297.77,126.27 		"/>
		<polygon class="st6" points="326.42,495.22 323.45,500.05 304.69,497.02 300.95,497.11 299.04,494.44 307.24,494.44 
			324.05,494.44 		"/>
		<polygon class="st2" points="323.45,500.05 321.84,502.66 308.97,500.63 303.7,500.96 300.95,497.11 304.69,497.02 		"/>
		<polygon class="st6" points="308.97,500.63 321.84,502.66 311.19,519.91 296.07,522.42 278.85,518.13 265.92,522.42 
			240.09,518.13 231.47,515.66 261.88,502.06 266.16,513.47 307.54,506.34 303.7,500.96 		"/>
		<polygon class="st4" points="310.07,285.28 311.21,307.44 308.98,341.57 310.2,354.88 308.97,355 293.44,357.72 291.84,346.52 
			267.6,343.82 270.23,337.26 270.23,320.04 270.44,320.04 274.54,313.09 291.84,283.73 309.74,279.18 		"/>
		<polygon class="st0" points="309.68,698.27 304.06,736.92 303.97,736.79 178.4,709.68 139.06,670.34 140.93,644.06 209.79,702.55 
					"/>
		<polygon class="st5" points="304.67,574.11 308.98,591.33 308.97,591.96 308.97,629.06 289.66,616.19 300.41,576.26 
			276.15,547.72 259.85,541.41 270.23,531.04 304.67,531.04 304.67,556.88 		"/>
		<polygon class="st3" points="299.92,403.06 308.97,406.45 303.26,422.15 269.64,435.72 261.62,427.7 261.68,427.66 256.2,422.18 
			286.14,397.89 		"/>
		<polygon class="st3" points="303.7,500.96 307.54,506.34 266.16,513.47 261.88,502.06 261.91,501.3 286.14,502.06 		"/>
		<path class="st0" d="M300.49,481.74l6.75,12.7h-8.21l-5.76-8.08l-27.54,8.08h-36.42l-25.66,7.32l-3.14,0.3
			c0.06,0.19,0.13,0.37,0.19,0.54l-0.44,0.13l-7.55-5.64v-0.5l21.53-8.62l43.07-8.6l17.22,4.31l5.89-1.97l7.02-2.34L300.49,481.74z"
			/>
		<path class="st2" d="M303.9,451.49l-7.78,22.03l4.37,8.22l-13.04-2.37l-7.02,2.34v-22.46l-95.88,27.47
			c1.14-2.37,2.34-4.71,3.58-7.03l23.8-10.45l2.6-7.79l12.64-3.61l34.45-8.62l17.22,4.31l17.28-1.41L303.9,451.49z"/>
		<polygon class="st2" points="303.7,500.96 286.14,502.06 261.91,501.3 244.21,500.75 253.1,498.15 300.95,497.11 		"/>
		<polygon class="st3" points="300.95,497.11 253.1,498.15 265.73,494.44 272.38,494.44 299.04,494.44 		"/>
		<polygon class="st7" points="276.15,547.72 300.41,576.26 289.66,616.19 253.32,591.96 253,591.33 265.92,574.11 253,548.26 
			259.85,541.41 		"/>
		<path class="st8" d="M249.34,394.54c0.23-0.88,0.54-2.01,0.97-3.45c1.2-3.98,3.27-10.32,6.89-20.31c0.8-2.2,1.67-4.57,2.61-7.13
			l33.63-5.92l6.48,45.33l-13.78-5.17l-29.94,24.29l-2.88-2.88l-8.56-15.84l3.94-5.91C248.69,397.55,248.69,396.98,249.34,394.54z"
			/>
		<polygon class="st4" points="293.27,486.36 299.04,494.44 272.38,494.44 265.73,494.44 		"/>
		<polygon class="st1" points="235.78,440.61 257.31,440.61 262.65,440.61 271.87,450.69 296.13,452.12 278.85,453.53 
			261.62,449.22 227.17,457.84 214.53,461.45 227.65,422.12 231.47,423.39 		"/>
		<path class="st1" d="M291.84,346.52l1.6,11.2l-33.63,5.92c0.57-1.54,1.18-3.17,1.81-4.85l5.98-14.97L291.84,346.52z"/>
		<polygon class="st2" points="277.58,219.52 291.84,283.73 274.54,313.09 274.72,295.15 257.2,287.77 265.92,285.59 248.69,259.76 
			249.04,259.48 266.16,259.48 		"/>
		<path class="st2" d="M192.71,497.09v16.72l-17.22,8.6l4.31-12.91v-12.34c1.47-3.54,3.05-7.02,4.75-10.45l95.88-27.47v22.46
			l-5.89,1.97l-17.22-4.31l-43.07,8.6l-21.53,8.62V497.09z"/>
		<polygon class="st2" points="274.72,295.15 274.54,313.09 257.2,287.77 		"/>
		<path class="st0" d="M270.23,320.04v17.22l-2.63,6.56l-5.98,14.97c-0.63,1.68-1.24,3.31-1.81,4.85c-0.94,2.57-1.81,4.94-2.61,7.13
			l-0.31-13.56l-17.12-5.71l8.56-2.85l-1.51-7.58l-2.77-13.83l-25.49-15.82h-25.84l-13.17,4.38l2.43-12.1l12.83-13.81h23.76h30.14
			l8.5-2.13l17.34,25.31l-4.1,6.95H270.23z"/>
		<polygon class="st2" points="262.65,440.61 257.31,440.61 235.78,440.61 245.68,430.71 249.39,427.7 261.62,427.7 269.64,435.72 
			274.54,440.61 		"/>
		<polygon class="st7" points="248.69,259.76 265.92,285.59 257.2,287.77 248.69,289.9 218.56,289.9 194.8,289.9 200.52,283.73 
			158.35,283.73 162.58,276.98 182.94,266.8 197.02,259.76 212.16,259.76 		"/>
		<polygon class="st4" points="253,548.26 265.92,574.11 253,591.33 224.16,575.3 217.64,552 231.91,530.6 259.85,541.41 		"/>
		<polygon class="st6" points="265.73,494.44 253.1,498.15 239.05,498.45 203.66,501.76 229.32,494.44 		"/>
		<polygon class="st0" points="263.31,650.46 259.2,680.53 235.78,681.76 201.33,660.22 180.81,643.8 166.27,621.92 184.82,573.41 
					"/>
		<polygon class="st3" points="261.91,501.3 261.88,502.06 231.47,515.66 212.18,510.15 244.21,500.75 		"/>
		<polygon class="st9" points="261.68,427.66 261.62,427.7 249.39,427.7 256.2,422.18 		"/>
		<path class="st3" d="M245.55,370.65l-0.8,0.13l-48.7,10.96l-7.11-10.17l19.42,2.78l4.28-14.27l0.96-2.37l4.75,0.94l21.4-7.13
			l17.12,5.71l0.31,13.56c-3.62,9.99-5.69,16.32-6.89,20.31c-0.43,1.44-0.74,2.57-0.97,3.45L245.55,370.65z"/>
		<polygon class="st2" points="256.2,422.18 249.39,427.7 248.69,427.7 245.68,430.71 235.78,440.61 231.47,423.39 244.76,403.46 
			253.32,419.3 		"/>
		<polygon class="st1" points="245.64,210.07 253.32,239.5 212.16,259.76 197.02,259.76 182.94,266.8 153.43,220.95 199.09,178.14 
			224.78,210.96 		"/>
		<path class="st2" d="M253.1,498.15l-8.89,2.6l-3.74-0.11l-36.34,5.38l-2.87-1.71c-0.14-0.46-0.33-1.01-0.56-1.7l2.95-0.84
			l35.39-3.31L253.1,498.15z"/>
		<path class="st3" d="M245.55,370.65l3.78,23.89c-0.64,2.44-0.64,3.01-0.64,3.01l-3.94,5.91l-13.28,19.93l-3.82-1.27l17.11-51.34
			L245.55,370.65z"/>
		<polygon class="st0" points="246.81,341.08 248.32,348.66 239.76,351.51 235.78,350.19 244.4,341.57 		"/>
		<polygon class="st2" points="244.04,327.26 246.81,341.08 244.4,341.57 231.47,328.65 223.36,326.63 223.35,326.54 232.63,328.68 
					"/>
		<path class="st6" d="M244.76,370.78l-17.11,51.34l-13.11,39.33l-17.51,4.99l-5.11,6.39c-1.3,2.27-2.55,4.55-3.78,6.85l-21.25,9.33
			l-13.46,5.91l-24.26-42.81l9.03-2.15l56.61-13.54c0,0-1.43-2.85,0-29.97l-3.54-11.32l12.1-2.95l-7.32-10.45L244.76,370.78z"/>
		<polygon class="st1" points="235.78,350.19 215.72,353.53 222.87,345.88 224.78,337.96 223.36,326.63 231.47,328.65 244.4,341.57 
					"/>
		<polygon class="st6" points="244.21,500.75 212.18,510.15 212.16,510.15 209.94,509.51 204.13,506.01 240.47,500.63 		"/>
		<polygon class="st7" points="244.04,327.26 232.63,328.68 223.35,326.54 219.21,325.59 214.25,324.35 213.11,324.57 
			189.82,328.68 175.69,337.16 175.49,337.26 175.49,337.27 166.81,341.13 162.7,342.95 158.42,341.53 162.21,331.94 176.97,328.68 
			179.54,315.81 192.71,311.43 218.56,311.43 		"/>
		<polygon class="st0" points="239.76,351.51 218.36,358.65 213.6,357.71 215.23,353.6 215.67,353.53 215.72,353.53 235.78,350.19 
					"/>
		<polygon class="st7" points="215.26,353.56 206.57,354.07 198.61,353.1 192.71,345.88 192.71,332.96 190.69,329.67 191.76,329.13 
			209.34,325.33 214.08,324.4 209.94,332.96 208.37,335.82 209.79,337.24 214.25,337.26 214.08,324.4 219.21,325.59 223.36,326.63 
			224.78,337.96 222.87,345.88 215.72,353.53 215.67,353.53 		"/>
		<polygon class="st0" points="215.26,353.56 215.23,353.6 209.94,354.48 206.57,354.07 		"/>
		<polygon class="st0" points="215.23,353.6 213.6,357.71 212.65,360.08 176.97,354.37 166.99,341.53 166.81,341.13 175.49,337.27 
			175.55,344.38 185.54,351.51 198.61,353.1 199.73,354.48 206.57,354.07 209.94,354.48 		"/>
		<path class="st7" d="M214.53,461.45l-2.6,7.79l-23.8,10.45c1.23-2.3,2.48-4.58,3.78-6.85l5.11-6.39L214.53,461.45z"/>
		<polygon class="st1" points="214.08,324.4 214.25,337.26 209.79,337.24 208.37,335.82 209.94,332.96 		"/>
		<polygon class="st1" points="213.11,324.57 209.34,325.33 192.71,328.65 191.76,329.13 190.53,329.4 190.69,329.67 175.69,337.16 
			189.82,328.68 		"/>
		<polygon class="st4" points="212.65,360.08 208.37,374.35 188.95,371.56 183.4,363.64 160.84,369.01 166.99,341.53 176.97,354.37 
					"/>
		<polygon class="st7" points="209.34,325.33 191.76,329.13 192.71,328.65 		"/>
		<polygon class="st0" points="206.57,354.07 199.73,354.48 198.61,353.1 		"/>
		<path class="st2" d="M204.13,506.01l-2.18,0.33c0,0,0,0-0.68-2.04L204.13,506.01z"/>
		<path class="st2" d="M203.66,501.76l-2.95,0.84c-0.06-0.17-0.13-0.36-0.19-0.54L203.66,501.76z"/>
		<path class="st6" d="M201.26,504.3l-1.07-0.64l0.09-0.91l-0.01-0.01l0.44-0.13C200.93,503.29,201.12,503.84,201.26,504.3z"/>
		<path class="st2" d="M200.52,283.73l-5.72,6.16h-10.69l-21.53,4.31c0,0,0,0-21.53,25.83v-8.6l17.31-27.7H200.52z"/>
		<polygon class="st6" points="200.28,502.74 200.19,503.66 199.18,503.04 200.26,502.73 		"/>
		<path class="st3" d="M153.4,573.46l-29.58-33.8l-14.3-27.07l38.2,22.29l19.16-45.85v-0.01l21.25-9.33
			c-1.24,2.33-2.44,4.67-3.58,7.03c-1.7,3.42-3.28,6.91-4.75,10.45v12.34l-4.31,12.91l17.22-8.6v-16.72l7.55,5.64l-1.08,0.31
			l1.01,0.61l-1.81,19.09l-1.1,0.4l-0.26-0.73l-21.53,12.93l-21.52,38.76L153.4,573.46z"/>
		<polygon class="st1" points="198.61,353.1 185.54,351.51 175.55,344.38 175.49,337.27 175.55,337.24 175.69,337.16 190.69,329.67 
			192.71,332.96 192.71,345.88 		"/>
		<path class="st1" d="M191.27,395.14l3.54,11.32c-1.43,27.11,0,29.97,0,29.97l-56.61,13.54l-16.57-10.42l23.23-33.09L191.27,395.14
			z"/>
		<path class="st3" d="M194.8,289.9l-12.83,13.81l-2.43,12.1l-12.66,4.22l-4.68,11.9l-26.1,5.75l-7.91-31.29l15.24-22.66h14.91
			l-17.31,27.7v8.6c21.53-25.83,21.53-25.83,21.53-25.83l21.53-4.31H194.8z"/>
		<polygon class="st3" points="188.59,53.08 193.07,92.65 189.1,99.66 169.84,112 166.27,75.4 		"/>
		<polygon class="st7" points="191.76,329.13 190.69,329.67 190.53,329.4 		"/>
		<polygon class="st2" points="179.54,315.81 176.97,328.68 162.21,331.94 166.89,320.04 		"/>
		<polygon class="st3" points="166.81,341.13 166.99,341.53 160.84,369.01 160.84,369.02 144.98,372.79 136.11,337.69 
			162.21,331.94 158.42,341.53 162.7,342.95 		"/>
		<path class="st7" d="M137.4,608.11l-0.33,0.71l-0.34-0.27l-22.25-47.7l-7.89-16.9c0,0,0,0-5.54-58.13
			c-0.57-5.99-1.2-12.6-1.88-19.89l7.42,9.13l1.44,34.72l1.48,2.81l14.3,27.07l29.58,33.8L137.4,608.11z"/>
		<polygon class="st2" points="137.08,608.82 137.4,608.11 137.36,609.05 		"/>
		<polygon class="st3" points="121.64,439.54 121.32,439.99 121.35,439.36 		"/>
	</g>
	<g>
	</g>
</g>
</svg>
